<svg width="32" height="32" viewBox="0 0 32 32" fill="none" xmlns="http://www.w3.org/2000/svg">
<g clip-path="url(#clip0_4_21)">
<path d="M30.3589 5.33331H1.64106C0.738437 5.33331 0 6.07175 0 6.97431V25.0256C0 25.9281 0.738437 26.6667 1.64106 26.6667H30.359C31.2615 26.6667 32.0001 25.9282 32.0001 25.0256V6.97431C32 6.07175 31.2616 5.33331 30.3589 5.33331ZM29.7431 6.564L16.944 16.1641C16.7139 16.3393 16.3606 16.4488 15.9999 16.4472C15.6393 16.4488 15.2861 16.3393 15.0559 16.1641L2.25681 6.564H29.7431ZM22.9062 16.7976L29.8806 25.413C29.8876 25.4216 29.8962 25.4282 29.9036 25.436H2.09637C2.10375 25.4278 2.11238 25.4216 2.11937 25.413L9.09375 16.7976C9.1446 16.7347 9.18258 16.6625 9.20551 16.585C9.22843 16.5074 9.23586 16.4262 9.22736 16.3458C9.21886 16.2654 9.19461 16.1874 9.15598 16.1164C9.11736 16.0454 9.06512 15.9827 9.00225 15.9319C8.73806 15.7182 8.35075 15.7587 8.137 16.0229L1.23075 24.5543V7.33325L14.3179 17.1486C14.8098 17.515 15.4083 17.6763 15.9999 17.6779C16.5906 17.6766 17.1896 17.5154 17.6819 17.1486L30.769 7.33325V24.5541L23.8629 16.0229C23.6492 15.7587 23.2615 15.7181 22.9977 15.9319C22.7331 16.1456 22.6924 16.5334 22.9062 16.7976Z" fill="#888888"/>
</g>
<defs>
<clipPath id="clip0_4_21">
<rect width="32" height="32" fill="white"/>
</clipPath>
</defs>
</svg>
