<svg width="32" height="32" viewBox="0 0 32 32" fill="none" xmlns="http://www.w3.org/2000/svg">
<path d="M15.9999 2.66667C11.5893 2.66667 7.99992 6.25601 7.99992 10.6667V14.7333C7.24793 14.8889 6.57238 15.2985 6.08678 15.8934C5.60117 16.4882 5.33509 17.2321 5.33325 18V26C5.33325 27.8347 6.83192 29.3333 8.66659 29.3333H23.3333C25.1679 29.3333 26.6666 27.8347 26.6666 26V18C26.6647 17.2321 26.3987 16.4882 25.9131 15.8934C25.4275 15.2985 24.7519 14.8889 23.9999 14.7333V10.6667C23.9999 6.25601 20.4106 2.66667 15.9999 2.66667ZM15.9999 4.00001C19.6893 4.00001 22.6666 6.97734 22.6666 10.6667V14.6667H9.33325V10.6667C9.33325 6.97734 12.3106 4.00001 15.9999 4.00001ZM8.66659 16H23.3333C24.4533 16 25.3333 16.88 25.3333 18V26C25.3333 27.12 24.4533 28 23.3333 28H8.66659C7.54659 28 6.66659 27.12 6.66659 26V18C6.66659 16.88 7.54659 16 8.66659 16Z" fill="#888888"/>
<path d="M16 18.6667C14.9027 18.6667 14 19.5693 14 20.6667C14 21.5307 14.56 22.272 15.3333 22.5493V24.6667C15.3333 24.8435 15.4036 25.0131 15.5286 25.1381C15.6536 25.2631 15.8232 25.3333 16 25.3333C16.1768 25.3333 16.3464 25.2631 16.4714 25.1381C16.5964 25.0131 16.6667 24.8435 16.6667 24.6667V22.5493C17.44 22.272 18 21.5307 18 20.6667C18 19.5693 17.0973 18.6667 16 18.6667ZM16 20C16.376 20 16.6667 20.2907 16.6667 20.6667C16.6667 21.0427 16.376 21.3333 16 21.3333C15.624 21.3333 15.3333 21.0427 15.3333 20.6667C15.3333 20.2907 15.624 20 16 20Z" fill="#888888"/>
</svg>
