<svg width="24" height="24" viewBox="0 0 24 24" fill="none" xmlns="http://www.w3.org/2000/svg">
<path d="M20.45 19.7425L16.5435 15.8365C17.7448 14.4745 18.4064 12.7201 18.4035 10.904C18.4035 8.90049 17.6235 7.01699 16.207 5.60049C14.7905 4.18399 12.907 3.40399 10.904 3.40399C8.901 3.40399 7.017 4.18399 5.6 5.59999C4.183 7.01599 3.4035 8.89999 3.4035 10.9035C3.4035 12.907 4.1835 14.79 5.6 16.2065C7.0165 17.623 8.9 18.4035 10.9035 18.4035C12.7385 18.4035 14.4685 17.742 15.836 16.543L19.742 20.449C19.7883 20.4956 19.8434 20.5326 19.9041 20.5578C19.9647 20.583 20.0298 20.596 20.0955 20.596C20.1612 20.596 20.2263 20.583 20.2869 20.5578C20.3476 20.5326 20.4027 20.4956 20.449 20.449C20.5427 20.3552 20.5954 20.2281 20.5954 20.0955C20.5954 19.9629 20.5427 19.8358 20.449 19.742L20.45 19.7425ZM6.307 15.5C5.0795 14.272 4.4035 12.64 4.4035 10.904C4.4035 9.16799 5.0795 7.53549 6.307 6.30749C7.535 5.07999 9.167 4.40399 10.9035 4.40399C12.64 4.40399 14.272 5.07999 15.5 6.30749C16.7275 7.53549 17.404 9.16749 17.404 10.904C17.404 12.6405 16.7275 14.272 15.5 15.5C14.272 16.7275 12.64 17.404 10.904 17.404C9.168 17.404 7.5345 16.7275 6.307 15.5Z" fill="#262626"/>
</svg>
