<svg width="60" height="60" viewBox="0 0 60 60" fill="none" xmlns="http://www.w3.org/2000/svg">
<g clip-path="url(#clip0_186_1146)">
<path d="M29.735 60C29.5502 60.0002 29.3676 59.9594 29.2005 59.8805C29.0333 59.8017 28.8857 59.6868 28.7683 59.544C28.6509 59.4013 28.5666 59.2343 28.5215 59.055C28.4764 58.8758 28.4716 58.6888 28.5075 58.5075L30.275 49.67C30.3219 49.427 30.4413 49.2038 30.6175 49.03L50.0625 29.585C50.7667 28.8838 51.72 28.4901 52.7138 28.4901C53.7075 28.4901 54.6608 28.8838 55.365 29.585L58.9 33.12C59.6024 33.8236 59.9969 34.7771 59.9969 35.7713C59.9969 36.7654 59.6024 37.7189 58.9 38.4225L39.455 57.8675C39.2805 58.0428 39.0577 58.1621 38.815 58.21L29.9775 59.9775C29.8975 59.9924 29.8164 60 29.735 60ZM32.655 50.5275L31.33 57.155L37.9575 55.83L57.135 36.6525C57.3693 36.4181 57.501 36.1002 57.501 35.7687C57.501 35.4373 57.3693 35.1194 57.135 34.885L53.6 31.35C53.3656 31.1157 53.0477 30.984 52.7163 30.984C52.3848 30.984 52.0669 31.1157 51.8325 31.35L32.655 50.5275ZM23.75 52.5H6.25C4.5928 52.4987 3.00386 51.8398 1.83205 50.668C0.66023 49.4961 0.00132417 47.9072 0 46.25L0 13.75C0 10.3025 2.8025 7.5 6.25 7.5H11.25C11.5815 7.5 11.8995 7.6317 12.1339 7.86612C12.3683 8.10054 12.5 8.41848 12.5 8.75C12.5 9.08152 12.3683 9.39946 12.1339 9.63388C11.8995 9.8683 11.5815 10 11.25 10H6.25C4.1825 10 2.5 11.6825 2.5 13.75V46.25C2.5 48.3175 4.1825 50 6.25 50H23.75C24.0815 50 24.3995 50.1317 24.6339 50.3661C24.8683 50.6005 25 50.9185 25 51.25C25 51.5815 24.8683 51.8995 24.6339 52.1339C24.3995 52.3683 24.0815 52.5 23.75 52.5ZM41.25 30C40.9185 30 40.6005 29.8683 40.3661 29.6339C40.1317 29.3995 40 29.0815 40 28.75V13.75C40 11.6825 38.3175 10 36.25 10H31.25C30.9185 10 30.6005 9.8683 30.3661 9.63388C30.1317 9.39946 30 9.08152 30 8.75C30 8.41848 30.1317 8.10054 30.3661 7.86612C30.6005 7.6317 30.9185 7.5 31.25 7.5H36.25C39.6975 7.5 42.5 10.3025 42.5 13.75V28.75C42.5 29.0815 42.3683 29.3995 42.1339 29.6339C41.8995 29.8683 41.5815 30 41.25 30Z" fill="#95C800"/>
<path d="M28.75 15H13.75C11.6825 15 10 13.3175 10 11.25V6.25C10 5.91848 10.1317 5.60054 10.3661 5.36612C10.6005 5.1317 10.9185 5 11.25 5H15.125C15.705 2.15 18.2325 0 21.25 0C24.2675 0 26.795 2.15 27.375 5H31.25C31.5815 5 31.8995 5.1317 32.1339 5.36612C32.3683 5.60054 32.5 5.91848 32.5 6.25V11.25C32.5 13.3175 30.8175 15 28.75 15ZM12.5 7.5V11.25C12.5 11.9375 13.0625 12.5 13.75 12.5H28.75C29.4375 12.5 30 11.9375 30 11.25V7.5H26.25C25.9185 7.5 25.6005 7.3683 25.3661 7.13388C25.1317 6.89946 25 6.58152 25 6.25C25 4.1825 23.3175 2.5 21.25 2.5C19.1825 2.5 17.5 4.1825 17.5 6.25C17.5 6.58152 17.3683 6.89946 17.1339 7.13388C16.8995 7.3683 16.5815 7.5 16.25 7.5H12.5ZM33.75 22.5H8.75C8.41848 22.5 8.10054 22.3683 7.86612 22.1339C7.6317 21.8995 7.5 21.5815 7.5 21.25C7.5 20.9185 7.6317 20.6005 7.86612 20.3661C8.10054 20.1317 8.41848 20 8.75 20H33.75C34.0815 20 34.3995 20.1317 34.6339 20.3661C34.8683 20.6005 35 20.9185 35 21.25C35 21.5815 34.8683 21.8995 34.6339 22.1339C34.3995 22.3683 34.0815 22.5 33.75 22.5ZM33.75 30H8.75C8.41848 30 8.10054 29.8683 7.86612 29.6339C7.6317 29.3995 7.5 29.0815 7.5 28.75C7.5 28.4185 7.6317 28.1005 7.86612 27.8661C8.10054 27.6317 8.41848 27.5 8.75 27.5H33.75C34.0815 27.5 34.3995 27.6317 34.6339 27.8661C34.8683 28.1005 35 28.4185 35 28.75C35 29.0815 34.8683 29.3995 34.6339 29.6339C34.3995 29.8683 34.0815 30 33.75 30ZM33.75 37.5H8.75C8.41848 37.5 8.10054 37.3683 7.86612 37.1339C7.6317 36.8995 7.5 36.5815 7.5 36.25C7.5 35.9185 7.6317 35.6005 7.86612 35.3661C8.10054 35.1317 8.41848 35 8.75 35H33.75C34.0815 35 34.3995 35.1317 34.6339 35.3661C34.8683 35.6005 35 35.9185 35 36.25C35 36.5815 34.8683 36.8995 34.6339 37.1339C34.3995 37.3683 34.0815 37.5 33.75 37.5Z" fill="#95C800"/>
</g>
<defs>
<clipPath id="clip0_186_1146">
<rect width="60" height="60" fill="white"/>
</clipPath>
</defs>
</svg>
