<svg width="60" height="60" viewBox="0 0 60 60" fill="none" xmlns="http://www.w3.org/2000/svg">
<g clip-path="url(#clip0_186_1143)">
<path d="M39.6485 23.3742C38.7346 23.3742 38.2425 22.2494 38.9104 21.5816L48.1547 12.1967C49.1388 11.2125 50.6503 12.6888 49.6661 13.673L40.4218 23.0579C40.2109 23.2688 39.9297 23.3742 39.6485 23.3742ZM46.0105 8.36544L51.0721 3.23363C52.9701 1.33556 56.0984 1.26527 58.0316 3.19848L58.5237 3.69057C60.4569 5.58864 60.4921 8.71693 58.5589 10.6502L55.8524 13.3918L46.0457 23.3391V51.6695C46.0457 55.2899 43.0931 58.2073 39.5079 58.2073H6.53779C2.9174 58.2073 0 55.2899 0 51.6695V8.57634C0 4.9911 2.9174 2.0737 6.53779 2.0737H39.6485C43.1634 2.0737 45.8348 4.9911 46.0105 8.36544ZM27.065 36.1335C26.3972 36.1335 25.8699 35.4656 26.0457 34.7626L28.5765 26.0807L43.9367 10.5096V8.57634C43.9367 6.15103 41.9332 4.18266 39.5079 4.18266H6.53779C4.07733 4.18266 2.10896 6.15103 2.10896 8.57634V51.6695C2.10896 54.0948 4.07733 56.0983 6.53779 56.0983H39.5079C41.9332 56.0983 43.9367 54.0948 43.9367 51.6695V25.4832L36.0281 33.427L27.065 36.1335ZM35.7118 27.3813C34.7627 27.3813 34.3058 26.2565 34.9736 25.5886L36.6257 23.9015C37.6098 22.9173 39.0861 24.3936 38.1371 25.3777L36.4499 27.0649C36.239 27.2758 35.993 27.3813 35.7118 27.3813ZM33.2162 14.1299H8.4007C6.99473 14.1299 6.99473 12.021 8.4007 12.021H33.2162C34.587 12.021 34.587 14.1299 33.2162 14.1299ZM26.8541 22.7415H8.4007C6.99473 22.7415 6.99473 20.6326 8.4007 20.6326H26.8541C28.225 20.6326 28.225 22.7415 26.8541 22.7415ZM22.1793 31.3531H8.4007C6.99473 31.3531 6.99473 29.2442 8.4007 29.2442H22.1793C23.5501 29.2442 23.5501 31.3531 22.1793 31.3531ZM26.3269 39.9296H8.4007C6.99473 39.9296 6.99473 37.8206 8.4007 37.8206H26.3269C27.7329 37.8206 27.7329 39.9296 26.3269 39.9296ZM37.6801 48.5412H8.4007C6.99473 48.5412 6.99473 46.4322 8.4007 46.4322H37.6801C39.0861 46.4322 39.0861 48.5412 37.6801 48.5412ZM30.0176 28.6115L28.6116 33.4973L33.4974 32.021L30.0176 28.6115ZM31.0018 26.608L35.4657 31.0368L53.638 12.6537L49.1388 8.22484L31.0018 26.608ZM50.6151 6.71342L55.1142 11.1422L57.0826 9.17388C58.1722 8.0491 58.1371 6.29163 57.0475 5.202C55.7469 3.90147 54.0598 3.23363 52.5835 4.74505L50.6151 6.71342Z" fill="#95C800"/>
</g>
<defs>
<clipPath id="clip0_186_1143">
<rect width="60" height="60" fill="white"/>
</clipPath>
</defs>
</svg>
