<svg width="60" height="60" viewBox="0 0 60 60" fill="none" xmlns="http://www.w3.org/2000/svg">
<path d="M57.2785 8.06465C57.2785 4.58818 54.455 1.76465 50.9785 1.76465H9.01383C5.54619 1.76465 2.72266 4.58818 2.72266 8.06465V33.7764C2.72266 37.2441 5.54619 40.0676 9.01383 40.0676H19.3021L18.005 43.8502C17.7102 43.6553 17.3628 43.555 17.0094 43.5629C16.656 43.5708 16.3135 43.6864 16.0277 43.8944L13.7053 45.5752C12.9412 46.1179 12.7409 47.1926 13.3153 48.0044L20.1968 57.5152C20.4703 57.8946 20.8727 58.1399 21.3324 58.2123C21.5576 58.2494 21.7879 58.2413 22.0099 58.1886C22.232 58.1359 22.4414 58.0396 22.6259 57.9052L24.9491 56.2314C25.5447 55.7991 25.7847 55.0614 25.6118 54.3873L26.6256 54.0608C30.0138 52.9844 33.1991 51.3961 36.0932 49.3402C36.7021 48.9079 37.1168 48.2991 37.2756 47.6197C37.4432 46.8697 37.408 45.8108 36.455 44.752C36.7109 44.3108 36.7727 43.9049 36.7727 43.5873C36.755 42.8108 36.3403 42.0432 35.5021 41.2402C35.5903 40.8696 35.5903 40.4726 35.4844 40.0667H50.9785C54.455 40.0667 57.2785 37.2432 57.2785 33.7755V8.06465ZM35.555 47.2235C35.4932 47.4794 35.3168 47.7264 35.0697 47.9029C32.3302 49.8531 29.3024 51.3625 26.0962 52.3764L24.8962 52.7646L19.4168 45.1852L23.0874 34.4294C23.2903 33.8558 23.8991 33.5294 24.4815 33.6794C25.108 33.8382 25.4785 34.4735 25.3197 35.0911L24.1285 39.7499C24.1021 39.8558 24.0932 39.9705 24.1197 40.0676C24.1374 40.3235 24.2785 40.5529 24.4903 40.7029C24.7903 40.9146 25.1962 40.9058 25.4962 40.6941L37.2756 32.2499C37.3636 32.1873 37.4632 32.1427 37.5685 32.1186C37.6738 32.0944 37.7828 32.0913 37.8894 32.1093C37.9959 32.1274 38.0978 32.1662 38.1893 32.2236C38.2808 32.2811 38.3601 32.356 38.4227 32.4441C38.6944 32.8508 38.5868 33.3458 38.2197 33.5911C38.1315 33.6529 27.6024 41.1158 28.3374 40.597C27.9403 40.8794 27.8432 41.4264 28.1344 41.8235C28.393 42.2047 28.933 42.3202 29.3609 42.0352L32.9256 39.4941C33.3888 39.787 33.9288 40.3835 33.7815 40.8264L33.7727 40.8441L29.8638 43.6235C29.4668 43.9058 29.3785 44.4617 29.6609 44.8588C29.9406 45.2558 30.508 45.3291 30.8874 45.0617L34.355 42.5911C34.9197 43.1558 34.9991 43.4911 35.0079 43.6235C35.0079 43.6764 35.0079 43.8617 34.6638 44.1617C34.6482 44.1688 34.6356 44.1813 34.6285 44.197V44.2058L30.8785 46.8705C30.4815 47.1529 30.3932 47.7088 30.6756 48.1058C30.9906 48.5294 31.5491 48.5788 31.9021 48.3088L35.1756 45.9794C35.6344 46.5088 35.6168 46.9323 35.555 47.2235ZM55.5138 33.7764C55.5138 36.2735 53.4756 38.3029 50.9785 38.3029H34.6109L39.2344 35.0382C39.2697 35.0205 39.2962 34.9941 39.3227 34.9676H44.3785C45.5697 34.9676 46.5403 33.997 46.5403 32.797V30.1499C46.5403 28.9588 45.5697 27.9882 44.3785 27.9882H37.2138C36.0138 27.9882 35.0432 28.9588 35.0432 30.1499V31.6764L26.4403 37.8441L27.0315 35.5323C27.4285 33.9705 26.4844 32.3735 24.9315 31.9676C23.4491 31.5882 21.9138 32.4176 21.4197 33.8558L19.9021 38.3029H9.01383C6.51677 38.3029 4.48736 36.2735 4.48736 33.7764V8.06465C4.48736 5.55877 6.51677 3.52935 9.01383 3.52935H50.9785C53.4756 3.52935 55.5138 5.55877 55.5138 8.06465V33.7764Z" fill="#95C800"/>
<path d="M49.7778 18.0883H31.8043C30.3925 18.0883 29.2455 19.2353 29.2455 20.6471V22.7824C29.2455 24.1942 30.3925 25.3412 31.8043 25.3412H49.7778C51.1896 25.3412 52.3366 24.1942 52.3366 22.7824V20.6471C52.3366 19.2353 51.1896 18.0883 49.7778 18.0883ZM50.5719 22.7824C50.5719 23.2236 50.219 23.5765 49.7778 23.5765H31.8043C31.3719 23.5765 31.0102 23.2236 31.0102 22.7824V20.6471C31.0102 20.2059 31.3719 19.853 31.8043 19.853H49.7778C50.219 19.853 50.5719 20.2059 50.5719 20.6471V22.7824ZM49.7778 8.32946H31.8043C30.3925 8.32946 29.2455 9.47652 29.2455 10.8883V13.0236C29.2455 14.4353 30.3925 15.5824 31.8043 15.5824H49.7778C51.1896 15.5824 52.3366 14.4353 52.3366 13.0236V10.8883C52.3366 9.47652 51.1896 8.32946 49.7778 8.32946ZM50.5719 13.0236C50.5719 13.4559 50.219 13.8177 49.7778 13.8177H31.8043C31.3719 13.8177 31.0102 13.4559 31.0102 13.0236V10.8883C31.0102 10.4471 31.3719 10.0942 31.8043 10.0942H49.7778C50.219 10.0942 50.5719 10.4471 50.5719 10.8883V13.0236ZM17.3778 7.11182C12.0219 7.11182 7.6543 11.4795 7.6543 16.8442C7.6543 22.0942 11.9214 26.5589 17.3778 26.5589C22.8696 26.5589 27.1014 22.0651 27.1014 16.8442C27.1014 11.4795 22.7425 7.11182 17.3778 7.11182ZM19.5043 17.2059C19.5043 17.4353 19.469 17.6559 19.3984 17.8677C19.2593 18.3302 18.9747 18.7355 18.5868 19.0232C18.1989 19.311 17.7284 19.4658 17.2455 19.4648C16.7751 19.4679 16.3159 19.3219 15.9338 19.0476C15.5517 18.7733 15.2664 18.3849 15.119 17.9383C15.0308 17.7089 14.9866 17.4618 14.9866 17.2059V15.0353H19.5043V17.2059ZM23.8543 21.4412C23.209 20.2288 22.2289 19.2273 21.0308 18.5559C21.1896 18.1324 21.269 17.6824 21.269 17.2059V14.9912C21.269 12.7765 19.4602 10.9677 17.2455 10.9677C15.0219 10.9677 13.2219 12.7765 13.2219 14.9912V17.2059C13.2219 17.7265 13.319 18.2295 13.5043 18.6883C12.4055 19.3559 11.5064 20.3067 10.9014 21.4412C9.93366 20.1041 9.41469 18.4947 9.419 16.8442C9.419 12.4501 12.9925 8.87652 17.3778 8.87652C21.7719 8.87652 25.3366 12.4501 25.3366 16.8442C25.3366 18.5118 24.8337 20.0912 23.8543 21.4412Z" fill="#95C800"/>
</svg>
