<svg width="60" height="60" viewBox="0 0 60 60" fill="none" xmlns="http://www.w3.org/2000/svg">
<g clip-path="url(#clip0_185_1132)">
<path d="M18 60H42C46.9705 60 51 55.9705 51 51C51 46.0295 46.9705 42 42 42H18C13.0295 42 9 46.0295 9 51C9 55.9705 13.0295 60 18 60ZM18 44H42C45.866 44 49 47.1341 49 51C49 54.8659 45.8659 58 42 58H18C14.134 58 11 54.866 11 51C11 47.134 14.134 44 18 44ZM55 21H5.00004C2.23992 21.0033 0.00328125 23.2399 0 26V34.0001C0.00328125 36.7601 2.23992 38.9967 5.00004 39.0001H55.0001C57.7601 38.9968 59.9967 36.7602 60.0001 34.0001V26C59.9967 23.2399 57.7601 21.0033 55 21ZM58 34C58 35.6568 56.6568 37 55 37H5.00004C3.34324 37 2.00004 35.6568 2.00004 34V25.9999C2.00004 24.343 3.34324 22.9999 5.00004 22.9999H55.0001C56.6569 22.9999 58.0001 24.3431 58.0001 25.9999L58 34ZM55 0H5.00004C2.23992 0.00328125 0.00328125 2.23992 0 5.00004V13.0001C0.00328125 15.7601 2.23992 17.9967 5.00004 18.0001H55.0001C57.7601 17.9968 59.9967 15.7602 60.0001 13.0001V5.00004C59.9967 2.23992 57.7601 0.00328125 55 0ZM58 13C58 14.6568 56.6568 16 55 16H5.00004C3.34324 16 2.00004 14.6568 2.00004 13V5.00004C2.00004 3.34324 3.34324 2.00004 5.00004 2.00004H55.0001C56.6569 2.00004 58.0001 3.34324 58.0001 5.00004L58 13Z" fill="#95C800"/>
<path d="M15 25H7C5.3432 25 4 26.3432 4 28V32C4 33.6568 5.3432 35 7 35H15C16.657 35 18 33.6568 18 32V28C18 26.3432 16.657 25 15 25ZM14.0001 27L11.6131 28.8C11.4361 28.9317 11.2216 29.0033 11.0011 29.0044C10.7805 29.0054 10.5653 28.9359 10.3871 28.806L8.00008 27H14.0001ZM15 33H7C6.73479 33 6.48045 32.8947 6.29292 32.7072C6.10539 32.5196 6.00004 32.2653 6.00004 32.0001V28.0001L9.20008 30.4001C9.72288 30.7882 10.3569 30.9972 11.008 30.9961C11.6591 30.9951 12.2925 30.7839 12.814 30.3941L16 28.0001V32.0001C16 32.2653 15.8946 32.5196 15.7071 32.7072C15.5196 32.8947 15.2652 33 15 33ZM13.3811 8.80504C13.7802 8.28776 13.9978 7.65336 14.0001 7C14.0001 5.3432 12.6569 4 11.0001 4C9.34328 4 8.00008 5.3432 8.00008 7C8.00347 7.65164 8.22096 8.2841 8.61906 8.8C8.11773 9.1696 7.71009 9.65166 7.42892 10.2074C7.14774 10.7632 7.00087 11.3772 7.00012 12C7.00012 13.1046 7.89555 14.0001 9.00016 14.0001H13.0001C14.1047 14.0001 15.0002 13.1046 15.0002 12C14.9985 11.378 14.8513 10.7651 14.5701 10.2102C14.2889 9.65542 13.8817 9.17416 13.3811 8.80504ZM10 7C10 6.73479 10.1054 6.48045 10.2929 6.29292C10.4804 6.10539 10.7348 6.00004 11 6.00004C11.2652 6.00004 11.5195 6.10539 11.707 6.29292C11.8946 6.48045 11.9999 6.73479 11.9999 7C11.9999 7.26521 11.8946 7.51955 11.707 7.70708C11.5195 7.89461 11.2652 7.99996 11 7.99996C10.7348 7.99996 10.4804 7.89461 10.2929 7.70708C10.1054 7.51955 10 7.26521 10 7ZM9.00004 12C9.00004 10.8954 9.89547 10 11.0001 10C12.1047 10 13.0001 10.8954 13.0001 12H9.00004Z" fill="#95C800"/>
<path fill-rule="evenodd" clip-rule="evenodd" d="M22 29H27C27.2652 29 27.5196 28.8947 27.7071 28.7072C27.8946 28.5196 28 28.2653 28 28.0001C28 27.7349 27.8946 27.4805 27.7071 27.293C27.5196 27.1055 27.2652 27.0001 27 27.0001H22C21.7348 27.0001 21.4804 27.1055 21.2929 27.293C21.1054 27.4805 21 27.7349 21 28.0001C21 28.2653 21.1054 28.5196 21.2929 28.7072C21.4804 28.8947 21.7348 29 22 29ZM53 31H22C21.7348 31 21.4804 31.1053 21.2929 31.2928C21.1054 31.4804 21 31.7347 21 31.9999C21 32.2651 21.1054 32.5195 21.2929 32.707C21.4804 32.8945 21.7348 32.9999 22 32.9999H52.9999C53.5522 32.9999 53.9999 32.5522 53.9999 31.9999C53.9999 31.4476 53.5523 31 53 31ZM22 8.00004H27C27.2633 7.99719 27.5149 7.89057 27.7002 7.70334C27.8854 7.51611 27.9893 7.26338 27.9893 7.00002C27.9893 6.73666 27.8854 6.48393 27.7002 6.2967C27.5149 6.10946 27.2633 6.00285 27 6H22C21.738 6.00491 21.4884 6.11243 21.3049 6.29944C21.1213 6.48644 21.0185 6.738 21.0185 7.00002C21.0185 7.26204 21.1213 7.5136 21.3049 7.7006C21.4884 7.88761 21.738 7.99513 22 8.00004ZM53 9.99996H22C21.7348 9.99996 21.4804 10.1053 21.2929 10.2928C21.1054 10.4804 21 10.7347 21 10.9999C21 11.2651 21.1054 11.5195 21.2929 11.707C21.4804 11.8945 21.7348 11.9999 22 11.9999H52.9999C53.2651 11.9999 53.5195 11.8945 53.707 11.707C53.8945 11.5195 53.9999 11.2651 53.9999 10.9999C53.9999 10.8686 53.974 10.7386 53.9238 10.6173C53.8736 10.4959 53.7999 10.3857 53.7071 10.2929C53.6142 10.2 53.504 10.1263 53.3827 10.0761C53.2614 10.0258 53.1314 9.99996 53 9.99996ZM26.293 54.707C26.4632 54.8772 26.6891 54.9803 26.9291 54.9974C27.1692 55.0145 27.4074 54.9444 27.6 54.8L35.6 48.8C35.8069 48.639 35.9422 48.4032 35.9769 48.1434C36.0117 47.8835 35.943 47.6205 35.7857 47.4108C35.6284 47.2011 35.3951 47.0615 35.136 47.022C34.8768 46.9826 34.6126 47.0465 34.4 47.2L27.094 52.68L25.707 51.293C25.5184 51.1108 25.2658 51.01 25.0036 51.0123C24.7414 51.0146 24.4906 51.1197 24.3052 51.3052C24.1197 51.4906 24.0146 51.7414 24.0123 52.0036C24.01 52.2658 24.1108 52.5184 24.293 52.707L26.293 54.707Z" fill="#95C800"/>
</g>
<defs>
<clipPath id="clip0_185_1132">
<rect width="60" height="60" fill="white"/>
</clipPath>
</defs>
</svg>
