<svg width="18" height="18" viewBox="0 0 18 18" fill="none" xmlns="http://www.w3.org/2000/svg">
<path d="M11.024 4.72499C10.8866 4.86518 10.8096 5.05367 10.8096 5.24998C10.8096 5.4463 10.8866 5.63479 11.024 5.77498L12.224 6.97499C12.3642 7.11241 12.5527 7.18938 12.749 7.18938C12.9454 7.18938 13.1338 7.11241 13.274 6.97499L16.1015 4.14748C16.4787 4.98088 16.5929 5.90941 16.4289 6.80934C16.2649 7.70928 15.8306 8.53787 15.1837 9.18469C14.5369 9.83152 13.7083 10.2659 12.8084 10.4298C11.9085 10.5938 10.9799 10.4796 10.1465 10.1025L4.96404 15.285C4.66567 15.5834 4.26099 15.751 3.83904 15.751C3.41708 15.751 3.01241 15.5834 2.71404 15.285C2.41567 14.9866 2.24805 14.5819 2.24805 14.16C2.24805 13.738 2.41567 13.3334 2.71404 13.035L7.89654 7.85249C7.51941 7.01909 7.40522 6.09056 7.56919 5.19063C7.73316 4.29069 8.1675 3.4621 8.81433 2.81528C9.46115 2.16845 10.2897 1.73411 11.1897 1.57014C12.0896 1.40617 13.0181 1.52036 13.8515 1.89748L11.0315 4.71748L11.024 4.72499Z" stroke="black" stroke-width="1.2" stroke-linecap="round" stroke-linejoin="round"/>
</svg>
