<svg width="512" height="512" viewBox="0 0 512 512" fill="none" xmlns="http://www.w3.org/2000/svg">
<g clip-path="url(#clip0_588_74)">
<path d="M256 502C391.862 502 502 391.862 502 256C502 120.138 391.862 10 256 10C120.138 10 10 120.138 10 256C10 391.862 120.138 502 256 502Z" fill="#ADE5FF"/>
<path d="M286.01 370.249V318.243C319.384 315.206 336.065 291.045 336.065 245.76H286C280.477 245.76 276 241.283 276 235.76V151.749C276 146.226 280.477 141.749 286 141.749H380.022C385.545 141.749 390.022 146.226 390.022 151.749V242.185C390.022 323.658 355.355 366.349 286.01 370.249ZM121.978 370.249V318.243C155.352 315.206 172.033 291.045 172.033 245.76H121.967C116.444 245.76 111.967 241.283 111.967 235.76V151.749C111.967 146.226 116.444 141.749 121.967 141.749H215.989C221.512 141.749 225.989 146.226 225.989 151.749V242.185C225.99 323.658 191.322 366.349 121.978 370.249Z" fill="white"/>
<path d="M286.01 380.249C284.697 380.249 283.397 379.991 282.184 379.488C280.97 378.985 279.868 378.249 278.94 377.32C278.011 376.392 277.275 375.289 276.772 374.076C276.27 372.863 276.011 371.562 276.011 370.249V318.243C276.011 315.748 276.944 313.343 278.627 311.5C280.309 309.657 282.62 308.51 285.105 308.284C301.512 306.791 322.962 299.534 325.761 255.76H286C274.972 255.76 266 246.788 266 235.76V151.749C266 140.721 274.972 131.749 286 131.749H380.022C391.05 131.749 400.022 140.721 400.022 151.749V242.185C400.022 285.087 390.521 318.539 371.783 341.611C352.679 365.133 324.01 378.128 286.572 380.234C286.384 380.244 286.197 380.249 286.01 380.249ZM296.01 326.834V359.325C322.634 356.027 342.408 346.054 356.258 329.002C372.027 309.586 380.022 280.377 380.022 242.185V151.749H286V235.76H336.066C341.589 235.76 346.066 240.237 346.066 245.76C346.066 302.407 320.623 321.563 296.01 326.834ZM121.978 380.249C120.665 380.249 119.365 379.991 118.152 379.488C116.938 378.985 115.836 378.249 114.908 377.32C113.979 376.392 113.243 375.289 112.74 374.076C112.238 372.863 111.979 371.562 111.979 370.249V318.243C111.979 315.748 112.912 313.343 114.595 311.5C116.277 309.657 118.588 308.51 121.073 308.284C137.48 306.791 158.93 299.534 161.729 255.76H121.969C110.941 255.76 101.969 246.788 101.969 235.76V151.749C101.969 140.721 110.941 131.749 121.969 131.749H215.991C227.019 131.749 235.991 140.721 235.991 151.749V242.185C235.991 285.087 226.49 318.539 207.752 341.611C188.648 365.133 159.979 378.128 122.541 380.234C122.352 380.244 122.165 380.249 121.978 380.249ZM131.978 326.834V359.325C158.602 356.027 178.376 346.054 192.226 329.002C207.995 309.586 215.99 280.377 215.99 242.185V151.749H121.968V235.76H172.034C177.557 235.76 182.034 240.237 182.034 245.76C182.034 302.407 156.591 321.563 131.978 326.834Z" fill="black"/>
<path d="M256 511.999C187.62 511.999 123.333 485.371 74.98 437.019C26.629 388.667 0 324.379 0 255.999C0 187.619 26.629 123.332 74.98 74.979C118.79 31.169 176.921 4.74898 238.666 0.582978C299.818 -3.53902 360.375 14.31 409.189 50.852C413.61 54.162 414.511 60.429 411.202 64.85C407.892 69.271 401.625 70.173 397.203 66.863C304.018 -2.89803 171.572 6.67198 89.123 89.122C-2.894 181.138 -2.894 330.86 89.123 422.876C133.697 467.45 192.962 491.999 256 491.999C319.038 491.999 378.303 467.451 422.877 422.876C505.233 340.52 514.871 208.166 445.295 115.008C441.99 110.583 442.899 104.317 447.323 101.012C451.75 97.709 458.014 98.616 461.319 103.04C497.773 151.85 515.561 212.376 511.406 273.469C507.21 335.161 480.792 393.244 437.019 437.018C388.667 485.371 324.38 511.999 256 511.999Z" fill="black"/>
<path d="M430.043 92.1451C428.725 92.1468 427.42 91.8873 426.203 91.3814C424.986 90.8756 423.882 90.1335 422.954 89.1981L422.765 89.0081C418.87 85.0931 418.886 78.7611 422.802 74.8661C426.717 70.9711 433.05 70.9881 436.944 74.9031L437.133 75.0931C441.028 79.0081 441.012 85.3401 437.096 89.2351C435.223 91.1015 432.687 92.1482 430.043 92.1451Z" fill="black"/>
</g>
<defs>
<clipPath id="clip0_588_74">
<rect width="512" height="512" fill="white"/>
</clipPath>
</defs>
</svg>
