<svg width="50" height="50" viewBox="0 0 50 50" fill="none" xmlns="http://www.w3.org/2000/svg">
<g clip-path="url(#clip0_122_592)">
<path d="M47.5 5.83333H37.0117L31.9108 0.7325C31.4379 0.269953 30.8048 0.00758665 30.1433 0L12.5 0C11.837 0 11.2011 0.263392 10.7322 0.732233C10.2634 1.20107 10 1.83696 10 2.5V5.83333H2.5C1.83696 5.83333 1.20107 6.09673 0.732233 6.56557C0.263392 7.03441 0 7.67029 0 8.33333L0 39.1667C0 39.8297 0.263392 40.4656 0.732233 40.9344C1.20107 41.4033 1.83696 41.6667 2.5 41.6667H17.4892C17.3036 43.002 16.6235 44.219 15.5833 45.0767H15C14.3573 45.0767 13.7409 45.332 13.2864 45.7864C12.832 46.2409 12.5767 46.8573 12.5767 47.5C12.5767 48.1427 12.832 48.7591 13.2864 49.2136C13.7409 49.668 14.3573 49.9233 15 49.9233H35C35.6427 49.9233 36.2591 49.668 36.7136 49.2136C37.168 48.7591 37.4233 48.1427 37.4233 47.5C37.4233 46.8573 37.168 46.2409 36.7136 45.7864C36.2591 45.332 35.6427 45.0767 35 45.0767H34.4167C33.3765 44.219 32.6964 43.002 32.5108 41.6667H47.5C48.163 41.6667 48.7989 41.4033 49.2678 40.9344C49.7366 40.4656 50 39.8297 50 39.1667V8.33333C50 7.67029 49.7366 7.03441 49.2678 6.56557C48.7989 6.09673 48.163 5.83333 47.5 5.83333ZM36.0767 7.255L37.155 8.33333H32.5C32.279 8.33333 32.067 8.24554 31.9107 8.08926C31.7545 7.93298 31.6667 7.72101 31.6667 7.5V2.845L36.0767 7.255ZM11.6667 2.5C11.6667 2.27899 11.7545 2.06702 11.9107 1.91074C12.067 1.75446 12.279 1.66667 12.5 1.66667H30V7.5C30 8.16304 30.2634 8.79893 30.7322 9.26777C31.2011 9.73661 31.837 10 32.5 10H38.3333V30.8333C38.3333 31.0543 38.2455 31.2663 38.0893 31.4226C37.933 31.5789 37.721 31.6667 37.5 31.6667H12.5C12.279 31.6667 12.067 31.5789 11.9107 31.4226C11.7545 31.2663 11.6667 31.0543 11.6667 30.8333V2.5ZM35.9108 47.5C35.9108 48.0025 35.5025 48.41 35 48.41H15C14.7587 48.41 14.5272 48.3141 14.3565 48.1435C14.1859 47.9728 14.09 47.7413 14.09 47.5C14.09 47.2587 14.1859 47.0272 14.3565 46.8565C14.5272 46.6859 14.7587 46.59 15 46.59H35C35.5025 46.59 35.91 46.9975 35.9108 47.5ZM32.3133 45.0767H17.6867C18.4008 44.0651 18.8574 42.8946 19.0167 41.6667H30.9833C31.1426 42.8946 31.5992 44.0651 32.3133 45.0767ZM47.5 40H2.5C2.27899 40 2.06702 39.9122 1.91074 39.7559C1.75446 39.5996 1.66667 39.3877 1.66667 39.1667V37.5H5C5.22101 37.5 5.43297 37.4122 5.58926 37.2559C5.74554 37.0996 5.83333 36.8877 5.83333 36.6667C5.83333 36.4457 5.74554 36.2337 5.58926 36.0774C5.43297 35.9211 5.22101 35.8333 5 35.8333H1.66667V8.33333C1.66667 8.11232 1.75446 7.90036 1.91074 7.74408C2.06702 7.5878 2.27899 7.5 2.5 7.5H10V30.8333C10 31.4964 10.2634 32.1323 10.7322 32.6011C11.2011 33.0699 11.837 33.3333 12.5 33.3333H37.5C38.163 33.3333 38.7989 33.0699 39.2678 32.6011C39.7366 32.1323 40 31.4964 40 30.8333V9.8575C40 8.75 39.4167 8.30667 38.6783 7.5H47.5C47.721 7.5 47.933 7.5878 48.0893 7.74408C48.2455 7.90036 48.3333 8.11232 48.3333 8.33333V35.8333H8.33333C8.11232 35.8333 7.90036 35.9211 7.74408 36.0774C7.5878 36.2337 7.5 36.4457 7.5 36.6667C7.5 36.8877 7.5878 37.0996 7.74408 37.2559C7.90036 37.4122 8.11232 37.5 8.33333 37.5H48.3333V39.1667C48.3333 39.3877 48.2455 39.5996 48.0893 39.7559C47.933 39.9122 47.721 40 47.5 40Z" fill="#95C800"/>
<path d="M13.3424 16.7543C13.3648 17.1794 13.5489 17.5799 13.8571 17.8735C14.1653 18.1672 14.5742 18.3317 14.9999 18.3335H26.6666C27.1086 18.3335 27.5325 18.1579 27.8451 17.8453C28.1577 17.5328 28.3333 17.1089 28.3333 16.6668V5.00016C28.3333 4.55814 28.1577 4.13421 27.8451 3.82165C27.5325 3.50909 27.1086 3.3335 26.6666 3.3335H14.9999C14.5579 3.3335 14.134 3.50909 13.8214 3.82165C13.5088 4.13421 13.3333 4.55814 13.3333 5.00016V16.7118C13.3333 16.7268 13.3408 16.7402 13.3424 16.7543ZM15.2641 16.6668L19.2141 12.0593L21.0774 13.9227C21.2346 14.0745 21.4451 14.1585 21.6636 14.1566C21.8821 14.1547 22.0911 14.067 22.2456 13.9125C22.4001 13.758 22.4877 13.549 22.4896 13.3305C22.4915 13.112 22.4076 12.9015 22.2558 12.7443L21.8583 12.3468L23.4024 10.4168L26.6666 13.6793V16.6668H15.2641ZM26.6666 5.00016V11.3218L23.9224 8.57766C23.839 8.49532 23.7394 8.43113 23.63 8.38911C23.5206 8.34709 23.4037 8.32816 23.2866 8.3335C23.1696 8.34007 23.0554 8.37122 22.9513 8.42492C22.8472 8.47862 22.7556 8.55367 22.6824 8.64516L20.6724 11.1593L19.7558 10.2427C19.6745 10.1616 19.5774 10.0981 19.4705 10.0563C19.3636 10.0145 19.2492 9.99518 19.1345 9.99964C19.0198 10.0041 18.9073 10.0322 18.804 10.0822C18.7007 10.1322 18.6088 10.203 18.5341 10.2902L14.9999 14.4168V5.00016H26.6666Z" fill="#95C800"/>
<path d="M17.5001 8.33317C17.9603 8.33317 18.3334 7.96007 18.3334 7.49984C18.3334 7.0396 17.9603 6.6665 17.5001 6.6665C17.0398 6.6665 16.6667 7.0396 16.6667 7.49984C16.6667 7.96007 17.0398 8.33317 17.5001 8.33317Z" fill="#95C800"/>
<path d="M14.1666 22.5002H18.3333C18.5543 22.5002 18.7662 22.4124 18.9225 22.2561C19.0788 22.0998 19.1666 21.8878 19.1666 21.6668C19.1666 21.4458 19.0788 21.2339 18.9225 21.0776C18.7662 20.9213 18.5543 20.8335 18.3333 20.8335H14.1666C13.9456 20.8335 13.7336 20.9213 13.5773 21.0776C13.421 21.2339 13.3333 21.4458 13.3333 21.6668C13.3333 21.8878 13.421 22.0998 13.5773 22.2561C13.7336 22.4124 13.9456 22.5002 14.1666 22.5002ZM20.8333 21.6668C20.8333 21.8878 20.921 22.0998 21.0773 22.2561C21.2336 22.4124 21.4456 22.5002 21.6666 22.5002H35.8333C36.0543 22.5002 36.2662 22.4124 36.4225 22.2561C36.5788 22.0998 36.6666 21.8878 36.6666 21.6668C36.6666 21.4458 36.5788 21.2339 36.4225 21.0776C36.2662 20.9213 36.0543 20.8335 35.8333 20.8335H21.6666C21.4456 20.8335 21.2336 20.9213 21.0773 21.0776C20.921 21.2339 20.8333 21.4458 20.8333 21.6668ZM14.1666 25.8335H28.3333C28.5543 25.8335 28.7662 25.7457 28.9225 25.5894C29.0788 25.4331 29.1666 25.2212 29.1666 25.0002C29.1666 24.7791 29.0788 24.5672 28.9225 24.4109C28.7662 24.2546 28.5543 24.1668 28.3333 24.1668H14.1666C13.9456 24.1668 13.7336 24.2546 13.5773 24.4109C13.421 24.5672 13.3333 24.7791 13.3333 25.0002C13.3333 25.2212 13.421 25.4331 13.5773 25.5894C13.7336 25.7457 13.9456 25.8335 14.1666 25.8335ZM35.8333 24.1668H31.6666C31.4456 24.1668 31.2336 24.2546 31.0773 24.4109C30.9211 24.5672 30.8333 24.7791 30.8333 25.0002C30.8333 25.2212 30.9211 25.4331 31.0773 25.5894C31.2336 25.7457 31.4456 25.8335 31.6666 25.8335H35.8333C36.0543 25.8335 36.2662 25.7457 36.4225 25.5894C36.5788 25.4331 36.6666 25.2212 36.6666 25.0002C36.6666 24.7791 36.5788 24.5672 36.4225 24.4109C36.2662 24.2546 36.0543 24.1668 35.8333 24.1668Z" fill="#95C800"/>
</g>
<defs>
<clipPath id="clip0_122_592">
<rect width="50" height="50" fill="white"/>
</clipPath>
</defs>
</svg>
