<svg width="20" height="20" viewBox="0 0 20 20" fill="none" xmlns="http://www.w3.org/2000/svg">
<g clip-path="url(#clip0_122_1445)">
<path d="M14.95 14.9502C13.5255 16.036 11.791 16.6376 10 16.6668C4.16671 16.6668 0.833374 10.0002 0.833374 10.0002C1.86995 8.06843 3.30765 6.38069 5.05004 5.05018M8.25004 3.53352C8.82365 3.39925 9.41093 3.33213 10 3.33352C15.8334 3.33352 19.1667 10.0002 19.1667 10.0002C18.6609 10.9465 18.0576 11.8375 17.3667 12.6585M11.7667 11.7668C11.5378 12.0125 11.2618 12.2095 10.9552 12.3461C10.6485 12.4828 10.3175 12.5562 9.98178 12.5622C9.64611 12.5681 9.31268 12.5063 9.00138 12.3806C8.69009 12.2549 8.40731 12.0677 8.16991 11.8303C7.93252 11.5929 7.74537 11.3101 7.61963 10.9988C7.4939 10.6875 7.43215 10.3541 7.43807 10.0184C7.44399 9.68277 7.51746 9.35172 7.6541 9.04506C7.79074 8.73839 7.98775 8.46239 8.23337 8.23352" stroke="white" stroke-width="2" stroke-linecap="round" stroke-linejoin="round"/>
<path d="M0.833374 0.833496L19.1667 19.1668" stroke="white" stroke-width="2" stroke-linecap="round" stroke-linejoin="round"/>
</g>
<defs>
<clipPath id="clip0_122_1445">
<rect width="20" height="20" fill="white"/>
</clipPath>
</defs>
</svg>
