<svg width="30" height="30" viewBox="0 0 30 30" fill="none" xmlns="http://www.w3.org/2000/svg">
<path d="M7.02606 27.618C7.1403 27.9931 7.37183 28.3217 7.68663 28.5556C8.00144 28.7894 8.38293 28.9161 8.77506 28.917C8.95274 28.9171 9.12952 28.8919 9.30006 28.842L21.1861 25.263L23.3251 24.984C23.5629 24.9533 23.7924 24.876 24.0003 24.7565C24.2082 24.637 24.3906 24.4777 24.5369 24.2876C24.6832 24.0976 24.7905 23.8806 24.8529 23.649C24.9152 23.4174 24.9312 23.1758 24.9001 22.938L23.7721 14.328L27.3241 8.88001L28.2001 7.55701L28.6201 6.90001C28.9148 6.44888 29.0183 5.89912 28.9078 5.37167C28.7972 4.84423 28.4817 4.3823 28.0306 4.08751C27.5794 3.79273 27.0297 3.68922 26.5022 3.79978C25.9748 3.91033 25.5128 4.22588 25.2181 4.67701L24.7861 5.34001L23.9221 6.66001L22.9531 8.14201L22.2301 2.63701C22.199 2.39943 22.1214 2.17029 22.0018 1.96269C21.8821 1.7551 21.7227 1.57311 21.5327 1.42712C21.3427 1.28114 21.1258 1.17402 20.8944 1.11189C20.663 1.04976 20.4216 1.03383 20.1841 1.06501L7.56006 2.72401C7.10081 2.78332 6.6815 3.01564 6.3877 3.37355C6.09389 3.73147 5.94774 4.18801 5.97906 4.65001L2.34906 5.74201C1.88611 5.88143 1.49746 6.19895 1.2685 6.62479C1.03955 7.05063 0.989037 7.54995 1.12806 8.01301L7.02606 27.618ZM25.2931 6.20701L26.2411 6.82501L27.1861 7.44301L26.8141 8.01301L24.9211 6.77701L25.2931 6.20701ZM25.9711 5.16601C26.1354 4.91459 26.3928 4.73873 26.6868 4.67712C26.9807 4.61552 27.2871 4.67321 27.5386 4.83751C27.79 5.00182 27.9658 5.25927 28.0274 5.55323C28.0891 5.84719 28.0314 6.15359 27.8671 6.40501L27.6811 6.69001L25.8001 5.45101L25.9711 5.16601ZM24.4291 7.53001L25.3771 8.14801L26.3221 8.76601L20.5471 17.61L19.5991 16.992L18.6541 16.374L24.4291 7.53001ZM17.5291 19.623L17.7091 19.047C18.0108 19.125 18.2785 19.3 18.4711 19.545L18.0151 19.941C17.9659 19.9857 17.9033 20.0128 17.837 20.0181C17.7708 20.0233 17.7046 20.0064 17.649 19.97C17.5934 19.9337 17.5515 19.8798 17.5298 19.817C17.508 19.7542 17.5078 19.686 17.5291 19.623ZM19.1491 18.954C18.847 18.5814 18.4357 18.3128 17.9731 18.186L18.2731 17.205L19.9201 18.282L19.1491 18.954ZM7.06206 3.96901C7.1363 3.87251 7.22882 3.79158 7.33435 3.73084C7.43987 3.6701 7.55632 3.63074 7.67706 3.61501L20.3011 1.95901C20.342 1.95604 20.3831 1.95604 20.4241 1.95901C20.6454 1.96351 20.8577 2.04704 21.0228 2.1945C21.1879 2.34196 21.2947 2.54362 21.3241 2.76301L22.2001 9.30001L19.9021 12.813L15.3841 13.413C15.325 13.4168 15.2672 13.4321 15.214 13.4582C15.1609 13.4842 15.1133 13.5205 15.0742 13.565C14.9952 13.6547 14.955 13.7722 14.9626 13.8915C14.9701 14.0109 15.0248 14.1223 15.1145 14.2014C15.2043 14.2804 15.3217 14.3206 15.4411 14.313H15.5011L19.2541 13.8L17.6551 16.251C17.6545 16.261 17.6545 16.271 17.6551 16.281C17.6436 16.2998 17.6345 16.32 17.6281 16.341L17.3491 17.241L10.9531 18.102C10.8337 18.11 10.7224 18.165 10.6436 18.255C10.5649 18.345 10.5251 18.4627 10.5331 18.582C10.541 18.7014 10.5961 18.8127 10.6861 18.8914C10.7761 18.9702 10.8937 19.01 11.0131 19.002H11.0701L17.0311 18.222L16.6771 19.368C16.6 19.6169 16.606 19.8841 16.6942 20.1293C16.7824 20.3745 16.9481 20.5843 17.1661 20.727C17.3611 20.8556 17.5895 20.9244 17.8231 20.925C18.1127 20.9231 18.3918 20.8166 18.6091 20.625L20.9731 18.579L20.9971 18.552C21.0154 18.5351 21.0315 18.5159 21.0451 18.495L23.0011 15.495L24.0001 23.055C24.0162 23.1755 24.0083 23.2979 23.9769 23.4153C23.9455 23.5327 23.8912 23.6427 23.8171 23.739C23.7453 23.8344 23.6553 23.9145 23.5523 23.9748C23.4493 24.035 23.3353 24.0742 23.2171 24.09L10.5811 25.749C10.4607 25.7646 10.3385 25.7563 10.2213 25.7246C10.1041 25.693 9.99437 25.6385 9.89826 25.5644C9.80214 25.4903 9.72157 25.398 9.66114 25.2927C9.60071 25.1875 9.56161 25.0714 9.54606 24.951L6.87906 4.65301C6.84715 4.40978 6.91296 4.16382 7.06206 3.96901ZM2.61006 6.60001L6.09006 5.55301L8.65206 25.068C8.70999 25.5053 8.92414 25.9068 9.25498 26.1985C9.58582 26.4902 10.011 26.6523 10.4521 26.655C10.5324 26.655 10.6126 26.649 10.6921 26.637L15.6361 25.989L9.03606 27.975C8.80254 28.0451 8.55077 28.0197 8.33595 27.9044C8.12113 27.7891 7.96078 27.5933 7.89006 27.36L1.98906 7.75501C1.95396 7.6384 1.94218 7.51601 1.9544 7.39485C1.96661 7.27368 2.00258 7.15611 2.06025 7.04885C2.11792 6.94159 2.19616 6.84674 2.2905 6.76973C2.38484 6.69272 2.49343 6.63505 2.61006 6.60001ZM11.6821 6.12001C11.6667 6.00189 11.6989 5.88251 11.7714 5.78803C11.8439 5.69356 11.951 5.6317 12.0691 5.61601L19.2691 4.66801C19.3884 4.6525 19.509 4.68503 19.6044 4.75845C19.6998 4.83187 19.762 4.94017 19.7776 5.05951C19.7931 5.17886 19.7605 5.29948 19.6871 5.39485C19.6137 5.49021 19.5054 5.5525 19.3861 5.56801L12.1861 6.51301H12.1291C12.0197 6.51253 11.9141 6.47247 11.832 6.40023C11.7498 6.32799 11.6965 6.22845 11.6821 6.12001ZM9.50406 10.518C9.49653 10.4589 9.50083 10.3988 9.51672 10.3413C9.53261 10.2838 9.55977 10.2301 9.59661 10.1832C9.63346 10.1363 9.67926 10.0972 9.73136 10.0681C9.78345 10.0391 9.8408 10.0207 9.90006 10.014L19.8001 8.70001C19.9194 8.6845 20.04 8.71703 20.1354 8.79045C20.2308 8.86387 20.293 8.97217 20.3086 9.09151C20.3241 9.21086 20.2915 9.33148 20.2181 9.42685C20.1447 9.52221 20.0364 9.5845 19.9171 9.60001L10.0081 10.908H9.95106C9.84211 10.9076 9.73694 10.868 9.65484 10.7964C9.57274 10.7247 9.51921 10.6259 9.50406 10.518ZM12.8671 14.19C12.8755 14.249 12.8722 14.309 12.8572 14.3666C12.8423 14.4243 12.8161 14.4784 12.7801 14.5258C12.7441 14.5733 12.699 14.6131 12.6475 14.643C12.596 14.6729 12.5391 14.6923 12.4801 14.7L10.5391 14.955H10.4821C10.3627 14.963 10.2451 14.9232 10.1551 14.8444C10.0651 14.7657 10.01 14.6544 10.0021 14.535C9.9941 14.4157 10.0339 14.298 10.1126 14.208C10.1914 14.118 10.3027 14.063 10.4221 14.055L12.3631 13.8C12.4218 13.7924 12.4814 13.7965 12.5385 13.812C12.5957 13.8276 12.6492 13.8542 12.696 13.8904C12.7428 13.9267 12.782 13.9718 12.8114 14.0232C12.8407 14.0746 12.8597 14.1313 12.8671 14.19ZM11.1001 22.65C11.0847 22.5319 11.1169 22.4125 11.1894 22.318C11.2619 22.2236 11.369 22.1617 11.4871 22.146L14.9401 21.693C14.9992 21.6851 15.0592 21.689 15.1168 21.7043C15.1744 21.7196 15.2285 21.7462 15.2758 21.7824C15.3232 21.8186 15.363 21.8638 15.3928 21.9154C15.4227 21.967 15.4422 22.0239 15.4501 22.083C15.4579 22.1421 15.4541 22.2022 15.4388 22.2598C15.4234 22.3174 15.3969 22.3714 15.3607 22.4188C15.3245 22.4661 15.2793 22.5059 15.2277 22.5358C15.1761 22.5657 15.1192 22.5851 15.0601 22.593L11.6011 23.037H11.5441C11.4359 23.0366 11.3315 22.9973 11.25 22.9262C11.1684 22.8552 11.1152 22.7571 11.1001 22.65Z" fill="white"/>
</svg>
