<svg width="30" height="30" viewBox="0 0 30 30" fill="none" xmlns="http://www.w3.org/2000/svg">
<path d="M27.3525 21.6028H27.1767C27.0924 21.3487 26.9897 21.1012 26.8688 20.8612L26.9944 20.7351C27.1692 20.5603 27.2653 20.3278 27.2653 20.0798C27.2653 19.8323 27.1692 19.5994 26.9949 19.425L26.4905 18.9211V13.6125C26.4899 13.3001 26.3653 13.0006 26.1442 12.7799C25.9231 12.5591 25.6235 12.4351 25.3111 12.435H24.412L25.1166 4.57873C25.1339 4.37998 25.1606 4.08045 24.8719 3.78045L23.1886 2.03483C23.017 1.85389 22.9013 1.81451 22.6627 1.79342L22.0064 1.73436H22.0036L7.96313 0.474357C7.79051 0.457846 7.61633 0.476004 7.45083 0.527764C7.28532 0.579524 7.13183 0.663842 6.99938 0.775763C6.8658 0.886478 6.75557 1.02265 6.6751 1.17635C6.59463 1.33005 6.54552 1.49822 6.53063 1.67108L5.58985 12.1453H2.81954C2.5036 12.1453 2.21954 12.2545 2.01938 12.4537C1.82954 12.6426 1.72922 12.893 1.72922 13.1784L1.71985 25.3631C1.71985 26.2865 2.16938 27.3783 4.24922 27.4444C4.30325 27.4665 4.36098 27.4783 4.41938 27.479H17.4084L18.1744 28.245C18.5231 28.5937 19.1353 28.5933 19.4841 28.245L19.6092 28.1194C19.8483 28.2398 20.0958 28.343 20.3503 28.4273V28.6045C20.3507 28.8504 20.4486 29.0861 20.6227 29.2599C20.7967 29.4336 21.0325 29.5312 21.2784 29.5312H22.8084C23.3194 29.5312 23.7347 29.1155 23.7347 28.605V28.4278C23.9902 28.3434 24.2377 28.2408 24.4758 28.1203L24.6024 28.2469C24.7767 28.4195 25.0121 28.5162 25.2575 28.516C25.5028 28.5157 25.7381 28.4185 25.912 28.2455L26.9944 27.1631C27.1688 26.9883 27.2653 26.7558 27.2653 26.5083C27.2653 26.2608 27.1688 26.0278 26.9953 25.8544L26.8688 25.7273C26.9897 25.4869 27.0928 25.2394 27.1767 24.9853H27.3525C27.5983 24.9853 27.8341 24.8878 28.0081 24.7141C28.1821 24.5405 28.2801 24.3049 28.2806 24.059V22.529C28.2801 22.2832 28.1821 22.0476 28.0081 21.874C27.8341 21.7003 27.5983 21.6028 27.3525 21.6028ZM25.5525 13.6134V18.1242C25.3892 18.0691 25.2138 18.0603 25.0458 18.0988C24.8778 18.1374 24.7238 18.2218 24.6009 18.3426L24.4758 18.4678C24.2368 18.3469 23.989 18.2442 23.7347 18.1603V17.9831C23.7347 17.4722 23.3194 17.0569 22.8084 17.0569H21.278C21.0322 17.057 20.7966 17.1546 20.6227 17.3282C20.4488 17.5018 20.3508 17.7374 20.3503 17.9831V18.1603C20.0958 18.2447 19.8478 18.3478 19.6092 18.4683L19.4841 18.3426C19.3101 18.1695 19.0747 18.0722 18.8292 18.0722C18.5838 18.0722 18.3483 18.1695 18.1744 18.3426L17.0916 19.4255C16.7306 19.7864 16.7306 20.3737 17.0916 20.7347L17.2172 20.8603C17.0967 21.0994 16.9941 21.3478 16.9097 21.6028H16.7325C16.2216 21.6028 15.8063 22.0186 15.8063 22.529V24.059C15.8063 24.57 16.2216 24.9853 16.7325 24.9853H16.9097C16.9941 25.2408 17.0972 25.4887 17.2172 25.7278L17.092 25.8534C16.9027 26.0428 16.8155 26.294 16.8249 26.5425H4.88766V16.7536C4.88766 16.7198 4.91626 16.6908 4.95001 16.6908H15.1392C15.3089 16.6908 15.465 16.5994 15.548 16.4517L17.0142 13.8417L17.1 13.6823C17.1563 13.5759 17.25 13.3978 17.3142 13.3725H25.3102C25.4414 13.3725 25.5525 13.4831 25.5525 13.6134ZM24.1884 4.42404C24.188 4.44608 24.1847 4.46951 24.1824 4.49576L24.1819 4.50373L22.2413 4.32795L22.3875 2.71076L22.5506 2.72483L24.1884 4.42404ZM7.46485 1.75451C7.46929 1.70454 7.48359 1.65595 7.50692 1.61153C7.53025 1.56712 7.56216 1.52777 7.60079 1.49576C7.63896 1.46327 7.68329 1.43881 7.73113 1.42383C7.77897 1.40885 7.82934 1.40366 7.87922 1.40858L21.4542 2.62733L21.3019 4.3092C21.2813 4.5417 21.3534 4.76858 21.5034 4.94764C21.6534 5.1267 21.8644 5.23592 22.0955 5.25701L24.0984 5.43795L23.4703 12.4359H17.3147C16.6988 12.4359 16.4414 12.9234 16.2713 13.2459L14.865 15.7542H6.20719L7.46485 1.75451ZM2.65735 25.3636L2.66672 13.1789C2.66672 13.1615 2.6686 13.1306 2.68079 13.1184C2.69438 13.1053 2.74032 13.0903 2.82329 13.0833H5.50547L5.26594 15.7542H4.95094C4.6858 15.7545 4.43158 15.8599 4.24405 16.0473C4.05653 16.2347 3.951 16.4889 3.95063 16.754V26.489C2.66157 26.3559 2.65688 25.6992 2.65688 25.364L2.65735 25.3636ZM26.8261 24.0478C26.7222 24.0477 26.6212 24.0823 26.539 24.1459C26.4569 24.2096 26.3983 24.2987 26.3724 24.3994C26.2661 24.8109 26.1025 25.2054 25.8863 25.5712C25.8335 25.6606 25.8118 25.7649 25.8247 25.8679C25.8376 25.9709 25.8843 26.0667 25.9575 26.1403L26.3316 26.4998L25.2638 27.5826L24.8906 27.209C24.8169 27.1352 24.7205 27.0881 24.6169 27.0752C24.5133 27.0623 24.4084 27.0843 24.3188 27.1378C23.9578 27.353 23.5641 27.5161 23.1488 27.623C23.0481 27.6489 22.9589 27.7077 22.8953 27.7899C22.8316 27.8721 22.7971 27.9732 22.7972 28.0772L22.8084 28.5937L21.2878 28.605V28.0767C21.2878 27.9729 21.2532 27.872 21.1896 27.7899C21.1259 27.7079 21.0368 27.6493 20.9363 27.6234C20.525 27.5174 20.1308 27.3538 19.7653 27.1373C19.6758 27.0842 19.5711 27.0625 19.4678 27.0755C19.3645 27.0884 19.2685 27.1354 19.1948 27.209L18.8372 27.5826L17.9592 26.7164C17.9398 26.693 17.9182 26.6717 17.8945 26.6526L17.7558 26.5153L18.1294 26.1403C18.2027 26.0665 18.2493 25.9705 18.2621 25.8673C18.2748 25.7641 18.2528 25.6597 18.1997 25.5703C17.9831 25.2053 17.8199 24.8111 17.715 24.3998C17.689 24.299 17.6302 24.2097 17.5479 24.146C17.4656 24.0823 17.3644 24.0477 17.2603 24.0478L16.7438 24.059L16.7325 22.5403H17.2608C17.3648 22.5403 17.4659 22.5058 17.5482 22.442C17.6304 22.3783 17.6891 22.289 17.715 22.1883C17.8204 21.7765 17.9838 21.3818 18.2002 21.0159C18.2533 20.9264 18.275 20.8217 18.262 20.7184C18.2491 20.6151 18.202 20.5191 18.1284 20.4455L17.7548 20.0878L18.8213 19.005L19.1948 19.379C19.2685 19.4527 19.3645 19.4997 19.4678 19.5126C19.5711 19.5256 19.6758 19.5039 19.7653 19.4508C20.1309 19.2343 20.5253 19.0706 20.9367 18.9647C21.0374 18.9388 21.1265 18.8801 21.1902 18.798C21.2538 18.7158 21.2883 18.6148 21.2883 18.5109L21.2784 17.9944L22.7972 17.9831V18.5109C22.797 18.615 22.8315 18.7161 22.8951 18.7985C22.9588 18.8808 23.048 18.9396 23.1488 18.9656C23.56 19.0705 23.9542 19.2337 24.3192 19.4503C24.5039 19.5605 24.7388 19.53 24.8911 19.379L25.2492 19.0055L25.6781 19.4287C25.6881 19.4394 25.6986 19.4496 25.7095 19.4592L26.3311 20.0728L25.9575 20.4478C25.8844 20.5213 25.8378 20.6171 25.8249 20.7199C25.812 20.8228 25.8336 20.9271 25.8863 21.0164C26.1024 21.3823 26.266 21.7768 26.3724 22.1883C26.3982 22.289 26.4569 22.3782 26.539 22.4419C26.6211 22.5056 26.7221 22.5402 26.8261 22.5403L27.3431 22.529L27.3525 24.0478H26.8261Z" fill="white"/>
<path d="M22.0434 20.2472C20.3634 20.2472 18.9965 21.614 18.9965 23.294C18.9965 24.974 20.3634 26.3409 22.0434 26.3409C23.7234 26.3409 25.0903 24.974 25.0903 23.294C25.0903 21.614 23.7234 20.2472 22.0434 20.2472ZM22.0434 25.4034C20.88 25.4034 19.934 24.4575 19.934 23.294C19.934 22.1306 20.88 21.1847 22.0434 21.1847C23.2068 21.1847 24.1528 22.1311 24.1528 23.294C24.1528 24.457 23.2064 25.4034 22.0434 25.4034ZM10.1967 6.93278L20.2425 7.83466C20.3663 7.84579 20.4895 7.80727 20.5849 7.72758C20.6803 7.64789 20.7402 7.53356 20.7513 7.40974C20.7624 7.28591 20.7239 7.16274 20.6442 7.06732C20.5645 6.9719 20.4502 6.91204 20.3264 6.90091L10.2806 5.99903C10.1568 5.98785 10.0336 6.0263 9.93811 6.10595C9.84264 6.18559 9.78272 6.2999 9.77153 6.42372C9.76035 6.54755 9.7988 6.67074 9.87845 6.76621C9.95809 6.86168 10.0729 6.9216 10.1967 6.93278ZM9.95622 9.59997L20.0039 10.5014C20.0652 10.5069 20.127 10.5003 20.1857 10.4819C20.2445 10.4635 20.299 10.4338 20.3463 10.3943C20.3935 10.3548 20.4326 10.3065 20.4611 10.2519C20.4897 10.1974 20.5072 10.1378 20.5127 10.0765C20.5182 10.0151 20.5116 9.95335 20.4932 9.8946C20.4748 9.83584 20.4451 9.78129 20.4056 9.73404C20.3662 9.68679 20.3178 9.64777 20.2633 9.61922C20.2087 9.59067 20.1491 9.57314 20.0878 9.56763L10.0401 8.66622C9.97882 8.66071 9.91702 8.66733 9.85827 8.68571C9.79952 8.70408 9.74496 8.73384 9.69771 8.7733C9.65046 8.81276 9.61145 8.86114 9.58289 8.91567C9.55434 8.97021 9.53681 9.02983 9.5313 9.09114C9.52579 9.15246 9.53241 9.21425 9.55078 9.273C9.56916 9.33175 9.59892 9.38631 9.63838 9.43356C9.67784 9.48081 9.72621 9.51983 9.78075 9.54838C9.83529 9.57693 9.89491 9.59446 9.95622 9.59997Z" fill="white"/>
</svg>
