<svg width="50" height="50" viewBox="0 0 50 50" fill="none" xmlns="http://www.w3.org/2000/svg">
<g clip-path="url(#clip0_122_588)">
<path d="M12.4999 32.5C11.6758 32.5 10.8702 32.7444 10.185 33.2022C9.49984 33.66 8.96579 34.3108 8.65042 35.0722C8.33506 35.8335 8.25254 36.6713 8.41332 37.4795C8.57409 38.2878 8.97092 39.0302 9.55364 39.6129C10.1364 40.1957 10.8788 40.5925 11.687 40.7533C12.4953 40.914 13.3331 40.8315 14.0944 40.5162C14.8558 40.2008 15.5065 39.6667 15.9644 38.9815C16.4222 38.2963 16.6666 37.4908 16.6666 36.6667C16.6653 35.562 16.2259 34.503 15.4447 33.7219C14.6636 32.9407 13.6046 32.5013 12.4999 32.5ZM12.4999 39.1667C12.0055 39.1667 11.5221 39.02 11.111 38.7453C10.6999 38.4706 10.3794 38.0802 10.1902 37.6234C10.001 37.1666 9.95149 36.6639 10.048 36.1789C10.1444 35.694 10.3825 35.2485 10.7322 34.8989C11.0818 34.5493 11.5272 34.3112 12.0122 34.2147C12.4971 34.1182 12.9998 34.1678 13.4566 34.357C13.9134 34.5462 14.3039 34.8666 14.5786 35.2777C14.8533 35.6889 14.9999 36.1722 14.9999 36.6667C14.9999 37.3297 14.7365 37.9656 14.2677 38.4344C13.7988 38.9033 13.163 39.1667 12.4999 39.1667Z" fill="#95C800"/>
<path d="M48.5183 45H47.4783C48.0298 44.283 48.3303 43.4046 48.3333 42.5V38.3333C48.3333 37.8913 48.1577 37.4674 47.8452 37.1548C47.5326 36.8423 47.1087 36.6667 46.6667 36.6667H45C45.0607 35.2346 44.6645 33.8203 43.8687 32.6282C43.0728 31.4361 41.9184 30.5279 40.5725 30.035L34.8767 27.5733L34.8392 27.1567C35.5519 26.6442 36.199 26.0461 36.7658 25.3758C37.7638 25.7741 38.843 25.9258 39.912 25.818C40.9811 25.7102 42.0083 25.3461 42.9067 24.7567C43.1117 24.6123 43.2836 24.4258 43.4108 24.2097C43.538 23.9936 43.6176 23.7529 43.6444 23.5035C43.6711 23.2542 43.6443 23.0021 43.5658 22.7639C43.4873 22.5257 43.3589 22.3071 43.1892 22.1225C42.6208 21.5 41.6667 19.8583 41.6667 15.8333V11.6667C41.6667 8.57247 40.4375 5.60501 38.2496 3.41709C36.0617 1.22916 33.0942 0 30 0C26.9058 0 23.9383 1.22916 21.7504 3.41709C19.5625 5.60501 18.3333 8.57247 18.3333 11.6667V15.8333C18.3333 19.8583 17.3792 21.5 16.8117 22.1192C16.641 22.3047 16.512 22.5246 16.4334 22.7641C16.3549 23.0037 16.3286 23.2572 16.3563 23.5078C16.384 23.7584 16.4651 24.0001 16.5941 24.2166C16.7231 24.4332 16.897 24.6196 17.1042 24.7633C18.1501 25.4678 19.3848 25.8391 20.6458 25.8283C21.5265 25.8168 22.3992 25.6606 23.2292 25.3658C23.7976 26.0392 24.4469 26.6399 25.1625 27.1542L25.125 27.5708L22.9958 28.4875C22.3534 27.8618 21.4943 27.5081 20.5975 27.5H4.4025C3.90214 27.5025 3.40811 27.6121 2.95362 27.8213C2.49912 28.0306 2.09469 28.3348 1.7675 28.7133C1.40961 29.126 1.1442 29.6105 0.989108 30.1343C0.834016 30.6581 0.792836 31.209 0.868333 31.75L2.545 44.1667H2.5C1.83696 44.1667 1.20107 44.4301 0.732233 44.8989C0.263392 45.3677 0 46.0036 0 46.6667L0 48.3333C0 48.7754 0.175595 49.1993 0.488155 49.5118C0.800716 49.8244 1.22464 50 1.66667 50H45.8333C46.9532 49.9968 48.0283 49.5602 48.8333 48.7817C49.3908 48.2275 49.782 47.5283 49.9625 46.7633C50.0103 46.5556 50.0103 46.3397 49.9625 46.132C49.9147 45.9243 49.8204 45.7301 49.6867 45.5642C49.5463 45.3889 49.3686 45.2473 49.1664 45.1497C48.9643 45.0521 48.7428 45.0009 48.5183 45ZM46.6667 38.3333V42.5C46.6667 43.163 46.4033 43.7989 45.9344 44.2678C45.4656 44.7366 44.8297 45 44.1667 45H42.5C41.837 45 41.2011 44.7366 40.7322 44.2678C40.2634 43.7989 40 43.163 40 42.5V38.3333H46.6667ZM33.32 28.8683C33.3622 29.3295 33.3077 29.7945 33.16 30.2334C33.0122 30.6723 32.7745 31.0756 32.4621 31.4174C32.1496 31.7592 31.7692 32.032 31.3453 32.2185C30.9213 32.4049 30.4631 32.5008 30 32.5C29.1184 32.5013 28.2723 32.1529 27.6474 31.531C27.0225 30.9092 26.6698 30.0649 26.6667 29.1833C26.6667 29.075 26.6733 28.9725 26.68 28.8667L26.7475 28.1167C27.3324 28.4236 27.9377 28.6901 28.5592 28.9142C29.491 29.2464 30.509 29.2464 31.4408 28.9142C32.0621 28.6897 32.6674 28.4233 33.2525 28.1167L33.32 28.8683ZM41.9867 23.3217C41.9858 23.334 41.9825 23.346 41.9769 23.357C41.9713 23.3681 41.9636 23.3778 41.9542 23.3858C41.3435 23.7858 40.6505 24.0432 39.9267 24.1387C39.2029 24.2342 38.4669 24.1654 37.7733 23.9375C38.6267 22.4475 39.1073 20.7733 39.1742 19.0575C39.5285 18.9625 39.8647 18.8096 40.1692 18.605C40.2917 20.3233 40.9241 21.9658 41.9867 23.3217ZM22.9308 4.5975C24.3293 3.19974 26.1108 2.24794 28.0501 1.86241C29.9895 1.47687 31.9995 1.6749 33.8263 2.43146C35.6531 3.18802 37.2146 4.46916 38.3135 6.11295C39.4124 7.75675 39.9992 9.68941 40 11.6667V12.98C39.4816 12.6723 38.8912 12.5067 38.2883 12.5C37.5637 12.5328 36.8462 12.3446 36.231 11.9603C35.6157 11.5761 35.1318 11.0139 34.8433 10.3483C34.6941 10.0434 34.4743 9.77842 34.2021 9.57551C33.9299 9.37259 33.6132 9.23757 33.2783 9.18167C32.9659 9.12827 32.6451 9.1514 32.3435 9.24908C32.0419 9.34675 31.7685 9.51606 31.5467 9.7425C28.855 12.4633 21.7383 12.5 21.6667 12.5C21.0798 12.5035 20.5045 12.6634 20 12.9633V11.6667C19.9968 10.3531 20.2543 9.05194 20.7573 7.83852C21.2604 6.62509 21.9992 5.5235 22.9308 4.5975ZM18.0567 23.395C18.0308 23.3767 18.0158 23.3517 18.0392 23.2467C18.7175 22.5067 19.4925 21.1317 19.8292 18.6125C20.1343 18.8152 20.4707 18.9661 20.825 19.0592C20.8924 20.7743 21.3729 22.4479 22.2258 23.9375C21.5346 24.1651 20.8011 24.2346 20.0795 24.1407C19.3579 24.0468 18.6666 23.7919 18.0567 23.395ZM22.495 18.4208C22.5073 18.3047 22.495 18.1873 22.4589 18.0762C22.4229 17.9651 22.3639 17.8628 22.2858 17.776C22.2077 17.6892 22.1122 17.6198 22.0056 17.5722C21.8989 17.5247 21.7835 17.5001 21.6667 17.5C21.2246 17.5 20.8007 17.3244 20.4882 17.0118C20.1756 16.6993 20 16.2754 20 15.8333C20 15.3913 20.1756 14.9674 20.4882 14.6548C20.8007 14.3423 21.2246 14.1667 21.6667 14.1667C21.9875 14.1667 29.5517 14.13 32.7317 10.9167C32.7669 10.8797 32.8108 10.8522 32.8595 10.8366C32.9081 10.821 32.9599 10.8179 33.01 10.8275C33.083 10.8411 33.1518 10.8718 33.2106 10.9172C33.2694 10.9625 33.3166 11.0212 33.3483 11.0883C33.7741 12.0305 34.4692 12.8256 35.3461 13.3734C36.223 13.9212 37.2424 14.1972 38.2758 14.1667C38.7006 14.1677 39.1103 14.3246 39.4271 14.6075C39.744 14.8904 39.946 15.2797 39.995 15.7017C40.0132 15.9309 39.9837 16.1615 39.9084 16.3788C39.8332 16.5961 39.7137 16.7955 39.5576 16.9644C39.4016 17.1333 39.2122 17.2681 39.0015 17.3603C38.7908 17.4525 38.5633 17.5 38.3333 17.5C38.2166 17.5001 38.1011 17.5247 37.9944 17.5722C37.8878 17.6198 37.7923 17.6892 37.7142 17.776C37.6361 17.8628 37.5771 17.9651 37.5411 18.0762C37.505 18.1873 37.4927 18.3047 37.505 18.4208C37.5308 18.6792 38.0683 24.7783 30.88 27.3483C30.3108 27.5509 29.6892 27.5509 29.12 27.3483C21.9367 24.78 22.4683 18.6875 22.495 18.4208ZM2.52 31.525C2.47631 31.22 2.49832 30.9092 2.58456 30.6134C2.67079 30.3177 2.81925 30.0437 3.02 29.81C3.19005 29.609 3.40177 29.4473 3.64048 29.3363C3.8792 29.2252 4.13921 29.1673 4.4025 29.1667H20.5975C20.8604 29.1677 21.1199 29.2257 21.3582 29.3368C21.5964 29.4479 21.8077 29.6093 21.9775 29.81C22.1782 30.0437 22.3267 30.3177 22.4129 30.6134C22.4992 30.9092 22.5212 31.22 22.4775 31.525L20.7733 44.1667H4.22667L2.52 31.525ZM1.66667 48.3333V46.6667C1.66667 46.4457 1.75446 46.2337 1.91074 46.0774C2.06702 45.9211 2.27899 45.8333 2.5 45.8333H22.5C22.721 45.8333 22.933 45.9211 23.0893 46.0774C23.2455 46.2337 23.3333 46.4457 23.3333 46.6667V48.3333H1.66667ZM22.5 44.1667H22.455L24.1317 31.75C24.2107 31.1286 24.1372 30.4974 23.9175 29.9108L25.0125 29.4375C25.0786 30.7157 25.6329 31.9197 26.561 32.801C27.4891 33.6823 28.7201 34.1737 30 34.1737C31.2799 34.1737 32.5109 33.6823 33.439 32.801C34.3671 31.9197 34.9214 30.7157 34.9875 29.4375L39.91 31.565C40.958 31.927 41.8593 32.6211 42.4771 33.5418C43.095 34.4625 43.3956 35.5596 43.3333 36.6667H40C39.558 36.6667 39.134 36.8423 38.8215 37.1548C38.5089 37.4674 38.3333 37.8913 38.3333 38.3333V42.5C38.3364 43.4046 38.6368 44.283 39.1883 45H38.1483C37.9243 45.0011 37.7033 45.0521 37.5014 45.1494C37.2996 45.2467 37.122 45.3878 36.9817 45.5625C36.8483 45.7287 36.7542 45.9229 36.7063 46.1305C36.6584 46.3381 36.658 46.5538 36.705 46.7617C36.8418 47.3348 37.1021 47.8711 37.4675 48.3333H25V46.6667C25 46.0036 24.7366 45.3677 24.2678 44.8989C23.7989 44.4301 23.163 44.1667 22.5 44.1667ZM47.6667 47.5933C47.1739 48.0673 46.517 48.3325 45.8333 48.3333H40.8333C40.3077 48.3351 39.794 48.1766 39.3608 47.8788C38.9277 47.581 38.5957 47.1581 38.4092 46.6667H48.2567C48.1305 47.0152 47.9291 47.3316 47.6667 47.5933Z" fill="#95C800"/>
</g>
<defs>
<clipPath id="clip0_122_588">
<rect width="50" height="50" fill="white"/>
</clipPath>
</defs>
</svg>
