<svg width="50" height="50" viewBox="0 0 50 50" fill="none" xmlns="http://www.w3.org/2000/svg">
<path d="M29.7656 6.27539V3.15332C29.7656 2.88379 29.9844 2.66504 30.2539 2.66504H44.2803C44.5498 2.66504 44.7686 2.88379 44.7686 3.15332V6.27539M25.2666 31.9795V23.9893M49.2676 39.5352V43.8965C49.2676 44.166 49.0488 44.3848 48.7793 44.3848H28.9854M25.2666 10.9248V6.76367C25.2666 6.49414 25.4844 6.27539 25.7549 6.27539H48.7793C49.0488 6.27539 49.2676 6.49414 49.2676 6.76367V36.1172M16.0801 37.5889L17.4727 47.335H12.2451L13.6377 37.5889" stroke="#95C800" stroke-width="1.2" stroke-miterlimit="10" stroke-linecap="round" stroke-linejoin="round"/>
<path d="M18.2773 30.6611L26.4805 32.209C27.9336 32.4834 28.9854 33.7529 28.9854 35.2314V46.9111C28.9854 47.1445 28.7959 47.335 28.5615 47.335H1.15625C0.921875 47.335 0.732422 47.1445 0.732422 46.9111V35.2314C0.732422 33.7529 1.78418 32.4834 3.2373 32.209L3.89746 32.084M11.4404 30.6611L7.25586 31.4502" stroke="#95C800" stroke-width="1.2" stroke-miterlimit="10" stroke-linecap="round" stroke-linejoin="round"/>
<path d="M21.1367 31.2L20.1533 36.0477C20.0566 36.5242 19.4863 36.7244 19.1133 36.4139L17.3164 34.9178M13.4131 34.1316L10.8359 36.3758C10.4648 36.7 9.88184 36.5018 9.78516 36.0193L8.80371 31.158M3.82031 20.7908V12.1951C3.82035 11.3836 4.05277 10.5891 4.49009 9.90552C4.92741 9.22194 5.55134 8.67788 6.28809 8.33769L12.0049 5.69902C14.0186 4.76933 16.4014 5.25664 17.8887 6.90117L19.2754 8.43437C19.3347 8.50002 19.4072 8.55245 19.4882 8.58829C19.5691 8.62412 19.6566 8.64255 19.7451 8.64238H21.7295C22.1826 8.64238 22.6221 8.79668 22.9766 9.08086L25.1494 10.8221C25.6221 11.2 25.8975 11.7723 25.8975 12.3777V20.7908" stroke="#95C800" stroke-width="1.2" stroke-miterlimit="10" stroke-linecap="round" stroke-linejoin="round"/>
<path d="M11.4404 28.8848V31.0488C11.4404 32.4131 12.2383 33.5898 13.3936 34.1387M18.2773 28.8848V31.0488C18.2773 32.4072 17.4863 33.5801 16.3389 34.1318M6.64746 19.9316H5.37207C4.36133 19.9316 3.54199 20.751 3.54199 21.7617V22.4072C3.54199 23.418 4.36133 24.2373 5.37207 24.2373H7.14453M23.0703 19.9316H24.3457C25.3564 19.9316 26.1758 20.751 26.1758 21.7617V22.4072C26.1758 23.418 25.3564 24.2373 24.3457 24.2373H22.5732" stroke="#95C800" stroke-width="1.2" stroke-miterlimit="10" stroke-linecap="round" stroke-linejoin="round"/>
<path d="M24.1956 47.3347V39.4567M5.52246 47.3347V39.4567M18.2507 20.2905V21.3067M22.8067 13.4293L20.3606 11.7471C20.1958 11.6338 19.9947 11.5859 19.7964 11.6128C19.5982 11.6397 19.4171 11.7394 19.2884 11.8925L18.4879 12.8416C18.1098 13.2905 17.6381 13.6514 17.1059 13.899C16.5738 14.1466 15.9939 14.2749 15.4069 14.2749H8.14697C7.31914 14.2749 6.64805 14.946 6.64805 15.7738V21.4178C6.64805 25.9526 10.3242 29.6288 14.8591 29.6288C19.3939 29.6288 23.0701 25.9526 23.0701 21.4178V13.9297C23.0701 13.8312 23.046 13.7342 23.0002 13.647C22.9543 13.5598 22.8879 13.4851 22.8067 13.4293Z" stroke="#95C800" stroke-width="1.2" stroke-miterlimit="10" stroke-linecap="round" stroke-linejoin="round"/>
<path d="M17.0369 17.7154C17.7191 17.2694 19.0783 17.1284 19.759 17.8898M11.4673 20.2904V21.3066M12.6811 17.7154C11.9988 17.2694 10.6396 17.1284 9.95898 17.8898M13.0011 24.3269C13.4373 24.7975 14.1074 25.0985 14.859 25.0985C15.6106 25.0985 16.2807 24.7975 16.7169 24.3269M17.3378 34.9354L16.2983 37.315C16.2457 37.4355 16.1591 37.538 16.0491 37.61C15.9391 37.6819 15.8105 37.7203 15.6791 37.7203H14.0389C13.9074 37.7203 13.7788 37.6819 13.6688 37.61C13.5589 37.538 13.4723 37.4355 13.4196 37.315L12.4109 35.0047L13.4012 34.1319H16.3598L17.3378 34.9354ZM34.2468 35.9523V44.3849H40.2873V35.9523C40.2873 35.8228 40.2359 35.6986 40.1443 35.6071C40.0527 35.5155 39.9285 35.4641 39.799 35.4641H34.7351C34.6056 35.4641 34.4814 35.5155 34.3898 35.6071C34.2982 35.6986 34.2468 35.8228 34.2468 35.9523ZM29.0172 12.2437V14.688C29.0172 14.8175 29.0686 14.9417 29.1602 15.0333C29.2518 15.1248 29.376 15.1763 29.5055 15.1763H31.9498C32.0793 15.1763 32.2035 15.1248 32.2951 15.0333C32.3866 14.9417 32.4381 14.8175 32.4381 14.688V12.2437C32.4381 12.1142 32.3866 11.99 32.2951 11.8984C32.2035 11.8068 32.0793 11.7554 31.9498 11.7554H29.5055C29.376 11.7554 29.2518 11.8068 29.1602 11.8984C29.0686 11.99 29.0172 12.1142 29.0172 12.2437ZM35.5565 12.2437V14.688C35.5565 14.8175 35.608 14.9417 35.6996 15.0333C35.7911 15.1248 35.9153 15.1763 36.0448 15.1763H38.4892C38.6187 15.1763 38.7429 15.1248 38.8344 15.0333C38.926 14.9417 38.9774 14.8175 38.9774 14.688V12.2437C38.9774 12.1142 38.926 11.99 38.8344 11.8984C38.7429 11.8068 38.6187 11.7554 38.4892 11.7554H36.0448C35.9153 11.7554 35.7911 11.8068 35.6996 11.8984C35.608 11.99 35.5565 12.1142 35.5565 12.2437ZM42.096 12.2437V14.688C42.096 14.8175 42.1474 14.9417 42.239 15.0333C42.3306 15.1248 42.4548 15.1763 42.5843 15.1763H45.0286C45.1581 15.1763 45.2823 15.1248 45.3739 15.0333C45.4655 14.9417 45.5169 14.8175 45.5169 14.688V12.2437C45.5169 12.1142 45.4655 11.99 45.3739 11.8984C45.2823 11.8068 45.1581 11.7554 45.0286 11.7554H42.5843C42.4548 11.7554 42.3306 11.8068 42.239 11.8984C42.1474 11.99 42.096 12.1142 42.096 12.2437ZM29.0172 19.6477V22.092C29.0172 22.2215 29.0686 22.3457 29.1602 22.4373C29.2518 22.5288 29.376 22.5803 29.5055 22.5803H31.9498C32.0793 22.5803 32.2035 22.5288 32.2951 22.4373C32.3866 22.3457 32.4381 22.2215 32.4381 22.092V19.6477C32.4381 19.5182 32.3866 19.394 32.2951 19.3024C32.2035 19.2108 32.0793 19.1594 31.9498 19.1594H29.5055C29.376 19.1594 29.2518 19.2108 29.1602 19.3024C29.0686 19.394 29.0172 19.5182 29.0172 19.6477ZM35.5565 19.6477V22.092C35.5565 22.2215 35.608 22.3457 35.6996 22.4373C35.7911 22.5288 35.9153 22.5803 36.0448 22.5803H38.4892C38.6187 22.5803 38.7429 22.5288 38.8344 22.4373C38.926 22.3457 38.9774 22.2215 38.9774 22.092V19.6477C38.9774 19.5182 38.926 19.394 38.8344 19.3024C38.7429 19.2108 38.6187 19.1594 38.4892 19.1594H36.0448C35.9153 19.1594 35.7911 19.2108 35.6996 19.3024C35.608 19.394 35.5565 19.5182 35.5565 19.6477ZM42.096 19.6477V22.092C42.096 22.2215 42.1474 22.3457 42.239 22.4373C42.3306 22.5288 42.4548 22.5803 42.5843 22.5803H45.0286C45.1581 22.5803 45.2823 22.5288 45.3739 22.4373C45.4655 22.3457 45.5169 22.2215 45.5169 22.092V19.6477C45.5169 19.5182 45.4655 19.394 45.3739 19.3024C45.2823 19.2108 45.1581 19.1594 45.0286 19.1594H42.5843C42.4548 19.1594 42.3306 19.2108 42.239 19.3024C42.1474 19.394 42.096 19.5182 42.096 19.6477ZM29.0172 27.0518V29.4961C29.0172 29.6256 29.0686 29.7498 29.1602 29.8414C29.2518 29.9329 29.376 29.9844 29.5055 29.9844H31.9498C32.0793 29.9844 32.2035 29.9329 32.2951 29.8414C32.3866 29.7498 32.4381 29.6256 32.4381 29.4961V27.0518C32.4381 26.9223 32.3866 26.7981 32.2951 26.7065C32.2035 26.6149 32.0793 26.5635 31.9498 26.5635H29.5055C29.376 26.5635 29.2518 26.6149 29.1602 26.7065C29.0686 26.7981 29.0172 26.9223 29.0172 27.0518ZM35.5565 27.0518V29.4961C35.5565 29.6256 35.608 29.7498 35.6996 29.8414C35.7911 29.9329 35.9153 29.9844 36.0448 29.9844H38.4892C38.6187 29.9844 38.7429 29.9329 38.8344 29.8414C38.926 29.7498 38.9774 29.6256 38.9774 29.4961V27.0518C38.9774 26.9223 38.926 26.7981 38.8344 26.7065C38.7429 26.6149 38.6187 26.5635 38.4892 26.5635H36.0448C35.9153 26.5635 35.7911 26.6149 35.6996 26.7065C35.608 26.7981 35.5565 26.9223 35.5565 27.0518ZM42.096 27.0518V29.4961C42.096 29.6256 42.1474 29.7498 42.239 29.8414C42.3306 29.9329 42.4548 29.9844 42.5843 29.9844H45.0286C45.1581 29.9844 45.2823 29.9329 45.3739 29.8414C45.4655 29.7498 45.5169 29.6256 45.5169 29.4961V27.0518C45.5169 26.9223 45.4655 26.7981 45.3739 26.7065C45.2823 26.6149 45.1581 26.5635 45.0286 26.5635H42.5843C42.4548 26.5635 42.3306 26.6149 42.239 26.7065C42.1474 26.7981 42.096 26.9223 42.096 27.0518Z" stroke="#95C800" stroke-width="1.2" stroke-miterlimit="10" stroke-linecap="round" stroke-linejoin="round"/>
</svg>
