<svg width="50" height="50" viewBox="0 0 50 50" fill="none" xmlns="http://www.w3.org/2000/svg">
<path d="M48.4375 46.875H43.293C43.5852 46.3656 43.7313 45.7891 43.6946 45.193C43.6313 44.0172 43.5157 42.225 42.9688 33.5938C42.9688 31.4289 42.1063 27.5898 36.3329 26.1938C34.4516 25.7359 29.6875 24.3781 29.6875 22.4453V20.8805C30.686 19.9156 31.4102 18.5758 31.8133 16.9219C32.625 16.6 33.5938 15.7148 33.5938 13.8023C33.5938 13.1141 33.4485 12.6281 33.2774 12.2828C33.5766 11.2516 33.5938 10.1344 33.5938 9.2125C33.5938 8.15156 33.3547 6.62188 32.7071 5.47656C33.2915 4.40625 33.0672 3.28125 33.0563 3.22656C33.0169 3.03528 32.9072 2.86576 32.7487 2.7516C32.5903 2.63744 32.3947 2.58695 32.2008 2.61016C32.1844 2.61172 30.6188 2.78672 28.8547 2.3C27.6954 1.81016 26.3993 1.5625 25 1.5625C22.1579 1.5625 20.429 2.23437 19.2782 3.8C17.8547 4.47734 16.4063 6.20781 16.4063 8.59375C16.4063 10.9133 16.4071 11.4367 16.7063 12.3172C16.5422 12.6602 16.4063 13.1359 16.4063 13.8023C16.4063 15.7148 17.375 16.6 18.1868 16.9219C18.5899 18.5758 19.3141 19.9148 20.3125 20.8797V22.4445C20.3125 24.3789 15.5657 25.7313 13.668 26.193C7.89302 27.5891 7.0313 31.4289 7.03286 33.5445C6.44692 42.8055 6.35552 44.2578 6.3063 45.1859C6.26958 45.7875 6.41567 46.3664 6.70708 46.875H1.56255C0.529736 46.875 0.528174 48.4375 1.56255 48.4375H48.4375C49.4704 48.4375 49.4719 46.875 48.4375 46.875ZM21.875 22.4453V21.9984C22.5993 22.4188 23.2016 22.6562 25 22.6562C26.7977 22.6562 27.4016 22.4188 28.125 21.9992V22.4453C28.125 23.1102 28.3649 23.7328 28.8321 24.3156C28.0899 25.6875 26.6375 26.5586 24.9977 26.5625H24.9852C23.3485 26.5625 21.8954 25.7031 21.1461 24.3438C21.629 23.7531 21.875 23.1203 21.875 22.4453ZM20.0821 5.15313C20.2274 5.09453 20.3524 4.99453 20.4399 4.86484C21.0079 4.02266 21.8758 3.125 25 3.125C26.1961 3.125 27.3391 3.34609 28.3047 3.76328C28.5649 3.875 29.9344 4.19609 31.5149 4.20312C31.47 4.48277 31.352 4.74557 31.1727 4.96484C31.0583 5.10066 30.9936 5.27145 30.9893 5.449C30.9851 5.62656 31.0415 5.80025 31.1493 5.94141C31.7555 6.73672 32.0313 8.19375 32.0313 9.2125C32.0313 9.8375 32.0219 10.5125 31.9313 11.1492C31.7946 10.9516 31.6524 10.6844 31.5118 10.4211C30.329 8.19922 29.2469 7.41328 26.7274 7.79687C25.3618 8.00547 23.2977 8.31953 21.8907 6.98594C21.7986 6.89892 21.6868 6.83555 21.5649 6.80129C21.443 6.76703 21.3145 6.76291 21.1906 6.78927C21.0667 6.81563 20.9511 6.87169 20.8537 6.95263C20.7562 7.03356 20.6799 7.13695 20.6313 7.25391C19.8227 9.20859 18.9977 10.4391 18.0258 11.1414C17.9688 10.675 17.9688 10.0109 17.9688 8.59375C17.9688 6.88906 19.0313 5.57266 20.0821 5.15313ZM18.9321 15.5133C18.7711 15.4922 17.9688 15.3055 17.9688 13.8023C17.9688 13.1375 18.1625 12.8945 18.1524 12.8867C19.5532 12.2 20.6641 10.9117 21.6704 8.77109C23.4876 9.87109 25.6172 9.54609 26.9641 9.34063C28.5235 9.10391 29.1047 9.22187 30.1336 11.1547C30.5407 11.9195 30.9954 12.7734 31.8821 12.9766C31.9485 13.1125 32.0313 13.368 32.0313 13.8023C32.0313 15.3055 31.229 15.4922 31.0852 15.5117C30.9169 15.5263 30.7578 15.5952 30.6319 15.7079C30.5059 15.8205 30.4199 15.971 30.3868 16.1367C29.9743 18.1992 29.0813 19.6391 27.7336 20.4172C26.9102 20.907 26.7055 21.0938 25 21.0938C23.2993 21.0938 23.093 20.9086 22.2657 20.4172C20.918 19.6391 20.025 18.1992 19.6125 16.1367C19.5477 15.8109 19.2618 15.5594 18.9321 15.5133ZM7.86567 45.2758C7.92271 44.2109 8.04458 42.2922 8.5938 33.5938C8.5938 30.607 10.475 28.5734 14.036 27.7125C16.6727 27.0703 18.6477 26.2984 19.9571 25.4031C21.0204 27.0805 22.8961 28.125 24.986 28.125H25.0024C27.0907 28.1195 28.961 27.068 30.0188 25.3844C31.3282 26.2875 33.311 27.0664 35.9657 27.7125C39.5258 28.5734 41.4071 30.607 41.4086 33.6422C41.9985 42.9633 42.0852 44.3477 42.1352 45.282C42.1458 45.487 42.1146 45.6921 42.0435 45.8847C41.9724 46.0772 41.863 46.2534 41.7217 46.4024C41.5805 46.5513 41.4104 46.6701 41.2219 46.7513C41.0334 46.8326 40.8303 46.8746 40.625 46.875H39.0993L39.7875 31.7289C39.7993 31.4653 39.7575 31.202 39.6647 30.955C39.5719 30.7079 39.4301 30.4822 39.2477 30.2915C39.0653 30.1007 38.8462 29.9489 38.6036 29.8451C38.361 29.7413 38.0999 29.6877 37.836 29.6875H12.1375C11.8737 29.6877 11.6125 29.7413 11.3699 29.8451C11.1273 29.9489 10.9082 30.1007 10.7258 30.2915C10.5435 30.4822 10.4016 30.7079 10.3089 30.955C10.2161 31.202 10.1743 31.4653 10.186 31.7289L10.875 46.875H9.37505C8.50942 46.875 7.81255 46.1398 7.86567 45.2758ZM12.4391 46.875L11.7477 31.6578C11.7454 31.6051 11.7538 31.5524 11.7724 31.503C11.7909 31.4536 11.8194 31.4085 11.8559 31.3704C11.8924 31.3323 11.9362 31.302 11.9848 31.2813C12.0333 31.2606 12.0856 31.2499 12.1383 31.25H37.8368C37.8895 31.2499 37.9418 31.2606 37.9903 31.2813C38.0389 31.302 38.0827 31.3323 38.1192 31.3704C38.1557 31.4085 38.1842 31.4536 38.2027 31.503C38.2213 31.5524 38.2297 31.6051 38.2274 31.6578L37.5344 46.875H12.4391Z" fill="#95C800"/>
<path d="M24.6094 35.9375C23.7305 35.9375 22.8633 36.2422 22.1695 36.7953C21.8 37.0898 21.7938 37.7187 22.1703 38.018C22.7273 38.4602 23.0469 39.1258 23.0469 39.8438C23.0469 40.5617 22.7273 41.2273 22.1703 41.6695C21.7953 41.9664 21.7992 42.5984 22.1695 42.8922C22.8628 43.4451 23.7226 43.7474 24.6094 43.75C26.7633 43.75 28.5156 41.9977 28.5156 39.8438C28.5156 37.6898 26.7633 35.9375 24.6094 35.9375ZM23.9055 42.0742C24.357 41.4289 24.6094 40.6578 24.6094 39.8438C24.6094 39.0297 24.357 38.2586 23.9055 37.6133C25.4547 37.1219 26.9531 38.3 26.9531 39.8438C26.9531 41.3859 25.4555 42.5656 23.9055 42.0742Z" fill="#95C800"/>
</svg>
